<svg width="75" height="37" viewBox="0 0 75 37" fill="none" xmlns="http://www.w3.org/2000/svg">
<path d="M29.5523 19.6043C29.5523 24.5246 25.5636 28.5132 20.6433 28.5132C15.7231 28.5132 11.7344 24.5246 11.7344 19.6043C11.7344 14.684 15.7231 10.6953 20.6433 10.6953C25.5636 10.6953 29.5523 14.684 29.5523 19.6043Z" fill="#FFCD11"/>
<path fill-rule="evenodd" clip-rule="evenodd" d="M54.9904 1.08195C55.1201 0.983838 55.2882 0.951984 55.4449 0.995873L74.5284 6.34282C74.7066 6.39275 74.8448 6.53347 74.8912 6.71232C74.9376 6.89117 74.8853 7.08117 74.7538 7.21119L66.2966 15.5744C65.9449 15.9222 65.5213 16.1839 65.0536 16.3444C61.0709 17.7137 56.6864 16.0268 54.6733 12.3939H43.4321L40.0854 15.7034C39.8814 15.9051 39.5523 15.9035 39.3502 15.6999C39.1482 15.4963 39.1497 15.1677 39.3537 14.966L42.8523 11.5062C42.9497 11.4099 43.0812 11.3559 43.2182 11.3559H54.9864C55.1825 11.3559 55.3619 11.4661 55.4504 11.6409C57.1513 15.0021 61.1162 16.6004 64.7151 15.363L64.7155 15.3628C65.0364 15.2528 65.3251 15.0742 65.5649 14.837L73.3876 7.10123L55.8243 2.18021V7.34779L66.5235 9.16158C66.8066 9.20956 66.9971 9.47753 66.949 9.76011C66.9009 10.0427 66.6325 10.2329 66.3495 10.1849L55.2174 8.29771C54.9674 8.25534 54.7846 8.03916 54.7846 7.78606V1.49554C54.7846 1.33312 54.8607 1.18006 54.9904 1.08195ZM23.8118 2.3469C23.9036 2.27422 24.0174 2.23467 24.1346 2.23467H32.4042C32.631 2.23467 32.8317 2.38153 32.8999 2.5975L37.6708 17.6948C37.7294 17.8802 37.6793 18.0828 37.5409 18.2196L33.4061 22.3085C33.3088 22.4047 33.1773 22.4587 33.0403 22.4587H24.7708C24.6337 22.4587 24.5023 22.4047 24.4049 22.3085L18.9997 16.9632C18.9983 16.9619 18.997 16.9606 18.9957 16.9593L16.9235 14.9101H7.54631L1.44943 23.5017L2.03276 30.8566H3.89513V24.456C3.89513 24.3337 3.93836 24.2154 4.01718 24.1219L8.78807 18.4604C8.88684 18.3432 9.03243 18.2755 9.18587 18.2755H16.0241C16.3112 18.2755 16.544 18.5079 16.544 18.7945C16.544 19.0811 16.3112 19.3135 16.0241 19.3135H9.42787L4.93483 24.6452V31.3755C4.93483 31.6622 4.70208 31.8945 4.41498 31.8945H1.55245C1.28126 31.8945 1.05563 31.6864 1.03422 31.4165L0.398107 23.3961C0.388499 23.2749 0.421779 23.1543 0.492145 23.0551L6.85333 14.0911C6.95079 13.9538 7.10891 13.8721 7.27751 13.8721H17.1373C17.2744 13.8721 17.4058 13.9262 17.5032 14.0224L19.3459 15.8447L22.0245 12.931V4.01175C22.0245 3.85325 22.097 3.70345 22.2215 3.60501L23.8118 2.3469ZM20.0851 16.5757L24.9846 21.4208H32.8264L36.5839 17.7051L32.0231 3.27261H24.3156L23.0642 4.26265V13.133C23.0642 13.263 23.0154 13.3882 22.9273 13.4839L20.0851 16.5757ZM53.2132 15.3161C53.4149 15.5201 53.4128 15.8486 53.2085 16.05L47.0657 22.104C49.445 23.4336 51.0534 25.9588 51.0534 28.8593C51.0534 33.1459 47.5408 36.6124 43.2182 36.6124C38.8956 36.6124 35.383 33.1459 35.383 28.8593C35.383 24.5728 38.8956 21.1063 43.2182 21.1063C44.2378 21.1063 45.2123 21.2991 46.1063 21.6501C46.1321 21.5867 46.1709 21.5273 46.2229 21.4761L52.478 15.3114C52.6823 15.11 53.0115 15.1121 53.2132 15.3161ZM14.2748 22.1442C10.5171 22.1442 7.4793 25.1553 7.4793 28.8593C7.4793 32.5634 10.5171 35.5745 14.2748 35.5745C18.0325 35.5745 21.0703 32.5634 21.0703 28.8593C21.0703 25.1553 18.0325 22.1442 14.2748 22.1442ZM6.43961 28.8593C6.43961 24.5728 9.9522 21.1063 14.2748 21.1063C18.5974 21.1063 22.11 24.5728 22.11 28.8593C22.11 29.5501 22.0188 30.2195 21.8477 30.8566H30.6L31.8843 29.5865V26.5476H25.0888C24.8017 26.5476 24.569 26.3152 24.569 26.0286C24.569 25.742 24.8017 25.5096 25.0888 25.5096H32.4042C32.6913 25.5096 32.924 25.742 32.924 26.0286V29.8029C32.924 29.9414 32.8686 30.0742 32.77 30.1716L31.1797 31.7442C31.0824 31.8405 30.9509 31.8945 30.8139 31.8945H21.5902C21.5563 31.8945 21.5232 31.8913 21.4911 31.8851C20.2991 34.6653 17.5145 36.6124 14.2748 36.6124C9.9522 36.6124 6.43961 33.1459 6.43961 28.8593ZM43.2182 22.1442C39.4605 22.1442 36.4227 25.1553 36.4227 28.8593C36.4227 32.5634 39.4605 35.5745 43.2182 35.5745C46.9759 35.5745 50.0137 32.5634 50.0137 28.8593C50.0137 25.1553 46.9759 22.1442 43.2182 22.1442ZM14.2748 26.1953C12.7796 26.1953 11.5759 27.3927 11.5759 28.8593C11.5759 30.326 12.7796 31.5234 14.2748 31.5234C15.77 31.5234 16.9737 30.326 16.9737 28.8593C16.9737 27.3927 15.77 26.1953 14.2748 26.1953ZM10.5362 28.8593C10.5362 26.8102 12.2147 25.1574 14.2748 25.1574C16.3349 25.1574 18.0134 26.8102 18.0134 28.8593C18.0134 30.9085 16.3349 32.5613 14.2748 32.5613C12.2147 32.5613 10.5362 30.9085 10.5362 28.8593ZM43.2182 26.1953C41.7229 26.1953 40.5193 27.3927 40.5193 28.8593C40.5193 30.326 41.7229 31.5234 43.2182 31.5234C44.7134 31.5234 45.9171 30.326 45.9171 28.8593C45.9171 27.3927 44.7134 26.1953 43.2182 26.1953ZM39.4796 28.8593C39.4796 26.8102 41.1581 25.1574 43.2182 25.1574C45.2783 25.1574 46.9568 26.8102 46.9568 28.8593C46.9568 30.9085 45.2783 32.5613 43.2182 32.5613C41.1581 32.5613 39.4796 30.9085 39.4796 28.8593Z" fill="black"/>
</svg>
