<svg width="107" height="89" viewBox="0 0 107 89" fill="none" xmlns="http://www.w3.org/2000/svg">
<path d="M96.5064 42.452L93.1145 31.0087C91.8252 26.6565 87.6871 23.6149 83.0521 23.6149H79.7249C81.2868 19.7824 82.4883 15.3511 82.4883 10.7887C82.4883 4.93373 77.6177 0.167969 71.6287 0.167969C65.6398 0.167969 60.7691 4.93373 60.7691 10.7887C60.7691 15.3511 61.9706 19.7824 63.5325 23.6149H29.8609H23.6986C19.0637 23.6149 14.9255 26.6565 13.6362 31.0087L0.422141 75.5931C-0.50439 78.7183 0.110217 82.0017 2.10884 84.6026C4.10516 87.2036 7.15971 88.695 10.4869 88.695H80.7323H96.2638C99.591 88.695 102.646 87.2036 104.642 84.6026C106.641 82.0017 107.255 78.7183 106.329 75.5931L96.5064 42.452ZM87.9458 57.0001L84.3044 58.9909C84.2998 58.9931 84.2952 58.9977 84.2905 58.9999L80.291 61.1873V53.2105L91.1506 47.0912V55.2465L87.9458 57.0001ZM67.8163 63.377L63.1952 60.6925V59.714L67.8163 62.2562V63.377ZM71.7951 47.168L76.9361 44.1852L81.608 41.4735L82.6246 40.8837L83.706 41.4735L88.6737 44.1852L89.7296 44.7614L79.8104 50.352L78.8815 50.8762L75.3071 49.0074L71.7951 47.168ZM68.4702 52.3789L73.0751 54.9121L72.1856 55.4002L67.3796 52.9122L68.4702 52.3789ZM64.9073 54.7019L67.5621 56.0758L70.217 57.4498L68.7475 59.6598L63.6827 56.8735L64.9073 54.7019ZM74.5169 61.3433L73.9092 61.6709L72.7886 62.2743L70.589 63.4606V61.8675L73.1837 57.965L73.8515 57.5989L74.5192 57.2328V61.3433H74.5169ZM77.2896 54.9121C77.2896 54.8511 77.2849 54.7923 77.278 54.7313C77.278 54.7313 77.278 54.7313 77.278 54.729C77.2757 54.711 77.2688 54.6929 77.2665 54.6726C77.2595 54.6341 77.2526 54.5935 77.241 54.555C77.2341 54.5347 77.2272 54.5144 77.2203 54.4918C77.2087 54.4556 77.1971 54.4217 77.1833 54.3856C77.174 54.3652 77.1625 54.3449 77.1533 54.3246C77.1371 54.2907 77.1209 54.259 77.1024 54.2274C77.0909 54.207 77.077 54.189 77.0631 54.1709C77.0423 54.1415 77.0239 54.1099 77.0008 54.0828C76.9869 54.0647 76.9684 54.0466 76.9545 54.0285C76.9314 54.0014 76.9083 53.9743 76.8829 53.9494C76.8644 53.9314 76.8459 53.9178 76.8275 53.8997C76.7997 53.8771 76.7743 53.8523 76.7466 53.8319C76.7258 53.8161 76.705 53.8048 76.6819 53.789C76.6565 53.7709 76.6311 53.7528 76.6033 53.737C76.5987 53.7348 76.5964 53.7325 76.5918 53.7325C76.5895 53.7302 76.5872 53.728 76.5825 53.728L70.3579 50.3045V49.4887L77.5206 53.2354V61.0269L77.2896 60.8823V54.9121ZM63.5418 10.7887C63.5418 6.42967 67.1694 2.87964 71.6287 2.87964C76.0881 2.87964 79.7157 6.42967 79.7157 10.7887C79.7157 15.3285 78.3663 19.8118 76.7004 23.6149C76.2868 24.564 75.8524 25.4701 75.4111 26.3266C74.0109 29.0563 72.576 31.2528 71.6287 32.5996C70.6814 31.2528 69.2465 29.0563 67.8464 26.3266C67.405 25.4701 66.9706 24.564 66.5571 23.6149C64.8912 19.8118 63.5418 15.3285 63.5418 10.7887ZM64.7363 26.3266C67.345 31.7589 70.3209 35.4807 70.5404 35.7541C70.8038 36.0795 71.2059 36.2693 71.6287 36.2693C72.0516 36.2693 72.4536 36.0795 72.717 35.7541C72.9365 35.4807 75.9125 31.7589 78.5211 26.3266H83.0521C86.4602 26.3266 89.5031 28.5614 90.4528 31.7635L93.3294 41.4735H89.3922L83.2785 38.1359C82.8488 37.9009 82.322 37.9076 81.8968 38.154L76.1759 41.4735H60.8777C60.7853 41.2023 60.6074 40.9673 60.3671 40.8001L55.0898 37.1371C55.0274 37.0941 54.9627 37.058 54.8957 37.0241L47.9155 33.6955C47.3772 33.4379 46.7348 33.5464 46.3166 33.9644L44.1077 36.1699C44.043 36.1564 43.9783 36.1405 43.9137 36.127C43.641 36.0682 43.3591 36.0117 43.0657 35.9643C42.9825 35.9485 42.8993 35.9349 42.8161 35.9236C42.6706 35.901 42.5227 35.8784 42.3702 35.8581C42.2709 35.8445 42.1692 35.8332 42.0675 35.8219C41.9335 35.8061 41.7972 35.7903 41.6609 35.7767C41.5361 35.7654 41.4113 35.7541 41.2819 35.7428C41.1618 35.7315 41.0393 35.7225 40.9169 35.7157C40.8036 35.7067 40.6881 35.6999 40.5703 35.6954C40.3623 35.6841 40.1498 35.675 39.9326 35.6683C39.7939 35.6637 39.6553 35.6615 39.5144 35.6592C39.3619 35.657 39.2071 35.6547 39.0499 35.6547C34.616 35.6547 32.0328 35.4445 31.0832 34.3395C30.5702 33.743 30.3438 32.699 30.4015 31.0087C30.4039 30.9228 30.4085 30.8347 30.4131 30.7443C30.4154 30.7059 30.4177 30.6675 30.42 30.6268C30.4223 30.55 30.427 30.4686 30.4339 30.3873C30.4408 30.2879 30.4478 30.1839 30.457 30.08C30.4732 29.8698 30.494 29.6529 30.5171 29.4269C30.5286 29.3139 30.5425 29.1987 30.5564 29.0812C30.6511 28.2699 30.7851 27.3547 30.9607 26.3266H64.7363ZM59.0709 45.5659C59.1125 45.7308 59.1864 45.8867 59.2881 46.0246L59.4244 46.2121H51.0717H48.2113H41.3559L40.2999 45.1772L40.5957 43.5547L44.9257 39.2296L46.9798 37.1778L47.599 36.5609L53.5787 39.4126L56.5477 41.4735L58.3454 42.7209L58.7197 44.1852L59.0709 45.5659ZM10.4869 85.9833C8.04003 85.9833 5.79417 84.8851 4.32466 82.9734C2.85515 81.0616 2.40459 78.646 3.0839 76.3478L16.2979 31.7635C17.2476 28.5614 20.2906 26.3266 23.6986 26.3266H28.1488C28.128 26.4531 28.1072 26.5774 28.0887 26.7017C28.0679 26.826 28.0494 26.948 28.0309 27.07C28.0286 27.0723 28.0286 27.0745 28.0286 27.0768C27.9732 27.4361 27.9223 27.7863 27.8761 28.1276C27.8599 28.2428 27.8461 28.3558 27.8322 28.4688C27.8184 28.5818 27.8045 28.6925 27.7906 28.801C27.7629 29.0337 27.7375 29.2574 27.719 29.4789C27.7005 29.6642 27.6843 29.8472 27.6705 30.0257C27.6543 30.2404 27.6404 30.4483 27.6312 30.6539C27.6266 30.7511 27.622 30.846 27.6196 30.9409C27.5965 31.6482 27.615 32.2967 27.6867 32.8911C27.7121 33.1102 27.7444 33.3204 27.7837 33.5238C27.823 33.7272 27.8692 33.9238 27.9246 34.1136C27.9778 34.3034 28.0402 34.4864 28.1095 34.6627C28.1788 34.8389 28.2574 35.0107 28.3428 35.1734C28.4283 35.3383 28.5231 35.4965 28.6247 35.6479C28.7287 35.7993 28.8396 35.9439 28.9598 36.084C30.7874 38.2082 34.14 38.3664 39.0499 38.3664C40.0573 38.3664 40.9585 38.4183 41.7648 38.511L38.3152 41.9571C38.1211 42.1514 37.9894 42.4 37.9409 42.6666L37.9085 42.8384L37.6913 42.626C37.5388 42.4768 37.354 42.3661 37.1484 42.2983L34.8101 41.5368C34.3503 41.3854 33.8443 41.4825 33.4746 41.7876L27.756 46.533C27.3123 46.9014 27.1506 47.5002 27.3516 48.0357C27.5503 48.569 28.0702 48.9238 28.6525 48.9238H38.4538H40.7829H46.0116C44.787 49.6673 43.1558 50.1441 41.1941 50.6661C37.2107 51.7259 32.2546 53.0433 32.1183 59.2824C31.9866 65.3272 33.7264 68.7416 37.9339 70.7008C42.0352 72.6125 48.5555 73.1006 58.4308 73.2995C58.7127 73.3063 58.9923 73.313 59.2673 73.3243C59.4775 73.3311 59.6855 73.3401 59.8911 73.3514C60.1129 73.3605 60.3301 73.374 60.5473 73.3899C60.5958 73.3921 60.6444 73.3944 60.6906 73.3989C60.8615 73.4102 61.0302 73.4215 61.1989 73.4351C61.2682 73.4418 61.3375 73.4464 61.4045 73.4531C61.5663 73.4667 61.7257 73.4802 61.8851 73.4961C61.936 73.5006 61.9868 73.5051 62.0353 73.5119C62.1901 73.5254 62.3426 73.5435 62.4928 73.5616C62.5575 73.5684 62.6222 73.5752 62.6846 73.5842C62.814 73.5978 62.9434 73.6136 63.0704 73.6317C63.1767 73.643 63.283 73.6588 63.387 73.6746C63.4378 73.6791 63.4863 73.6859 63.5372 73.6949C63.692 73.7153 63.8445 73.7379 63.9947 73.7627C64.2095 73.7966 64.4198 73.8305 64.6277 73.8689C64.7849 73.896 64.9397 73.9254 65.0922 73.9548C65.4457 74.0226 65.79 74.0949 66.125 74.174C66.2937 74.2124 66.4577 74.2508 66.6217 74.2937C66.7558 74.3254 66.8875 74.3615 67.0169 74.3977C67.1416 74.4293 67.2641 74.4632 67.3842 74.4994C67.4928 74.5288 67.5991 74.5604 67.7054 74.592C67.8348 74.6304 67.9596 74.6689 68.0843 74.7095C68.1999 74.7457 68.3131 74.7818 68.424 74.8203C68.5418 74.8587 68.6597 74.8994 68.7752 74.9423C68.8884 74.9807 68.9993 75.0214 69.1102 75.0643C69.2327 75.1073 69.3505 75.1547 69.4684 75.1999C69.5585 75.2361 69.6486 75.2722 69.7364 75.3084C70.1477 75.4778 70.5428 75.6564 70.9194 75.8439C71.1412 75.9524 71.3561 76.0654 71.5663 76.1829C71.7096 76.2597 71.8505 76.3388 71.9892 76.4224C72.0793 76.4744 72.1694 76.5286 72.2595 76.5851C72.3912 76.6642 72.5229 76.7478 72.65 76.8314C72.7563 76.9015 72.8602 76.9715 72.9642 77.0438C73.0636 77.1116 73.1606 77.1817 73.2577 77.2495C73.2646 77.254 73.2715 77.2585 73.2785 77.2653C73.3755 77.3376 73.4702 77.4077 73.565 77.48C73.662 77.5545 73.7567 77.6291 73.8515 77.7059C73.9439 77.7805 74.0363 77.8573 74.1287 77.9342C74.4915 78.2415 74.8311 78.5601 75.1454 78.8878C75.2055 78.951 75.2678 79.0166 75.3279 79.0798C75.4226 79.1815 75.5151 79.2832 75.6029 79.3849C75.6768 79.4685 75.7484 79.5521 75.8177 79.638C75.8894 79.7239 75.9587 79.8097 76.028 79.8956C76.0973 79.9815 76.1643 80.0673 76.229 80.1555C76.2937 80.2413 76.3584 80.3295 76.4208 80.4153C76.4855 80.5035 76.5479 80.5916 76.608 80.6797C76.6703 80.7679 76.7281 80.856 76.7859 80.9464C76.8459 81.0345 76.9037 81.1249 76.9592 81.2153C77.4421 81.9904 77.8418 82.7903 78.1745 83.5993C78.2161 83.701 78.2577 83.8049 78.297 83.9066C78.3386 84.0106 78.3778 84.1123 78.4148 84.2162C78.4911 84.4218 78.565 84.6297 78.632 84.8354C78.6667 84.9348 78.6967 85.032 78.729 85.1291C78.7891 85.319 78.8469 85.5088 78.9 85.6986C78.9254 85.7867 78.9509 85.8748 78.974 85.963C78.9763 85.9698 78.9786 85.9765 78.9809 85.9833H10.4869ZM37.3147 46.0946L37.2916 46.2121H32.4302L34.6738 44.3501L35.9607 44.7704L37.3147 46.0946ZM102.426 82.9734C100.957 84.8851 98.7107 85.9833 96.2638 85.9833H81.8391C81.8044 85.8477 81.7697 85.7121 81.7328 85.5788C81.5895 85.0455 81.4347 84.528 81.2637 84.0264C81.2221 83.9044 81.1805 83.7846 81.139 83.6648C81.132 83.649 81.1274 83.6355 81.1228 83.6196C81.035 83.3778 80.9449 83.1383 80.8501 82.9056C80.2702 81.4593 79.5655 80.1532 78.7267 78.9759C78.6851 78.9171 78.6436 78.8584 78.602 78.8019C78.5026 78.6641 78.4009 78.5307 78.297 78.3974C78.2253 78.3048 78.1537 78.2144 78.0821 78.124C77.9527 77.9658 77.821 77.8099 77.687 77.6562C77.6315 77.5929 77.5761 77.5297 77.5206 77.4687C77.3797 77.3105 77.2341 77.1568 77.0886 77.0054C77.0169 76.9331 76.9476 76.8608 76.876 76.7907C76.7836 76.7004 76.6911 76.61 76.5987 76.5218C76.5178 76.4473 76.4393 76.3704 76.3561 76.2981C76.2683 76.2168 76.1782 76.1377 76.0881 76.0586C75.998 75.9795 75.9079 75.9004 75.8154 75.8236C71.7974 72.4543 66.1296 70.7415 58.4863 70.5878C49.2302 70.4025 42.763 69.9483 39.1262 68.2535C35.97 66.7824 34.7847 64.2832 34.8909 59.3411C34.9787 55.3324 37.6197 54.4262 41.922 53.2828C42.3124 53.1789 42.7122 53.0727 43.1142 52.9597C43.3776 52.8874 43.641 52.8105 43.9044 52.7314C44.0823 52.6772 44.2579 52.6207 44.4358 52.562C44.6715 52.4874 44.9049 52.406 45.1382 52.3202C45.2723 52.2727 45.404 52.2207 45.538 52.1688C46.0509 51.9677 46.5546 51.7417 47.0352 51.4796C47.123 51.4321 47.2108 51.3847 47.2963 51.3327C47.696 51.1022 48.0773 50.8468 48.4354 50.5598C48.4724 50.5305 48.5093 50.5011 48.544 50.4717C48.581 50.4423 48.6179 50.4107 48.6526 50.3791C48.7127 50.3294 48.7704 50.2774 48.8282 50.2231C48.8744 50.1825 48.9206 50.1395 48.9668 50.0943C49.0223 50.0446 49.0754 49.9904 49.1286 49.9362C49.1748 49.8887 49.221 49.839 49.2672 49.7893C49.3758 49.674 49.4798 49.5543 49.5791 49.43C49.6161 49.3848 49.6507 49.3419 49.6854 49.2967C49.7316 49.2379 49.7732 49.1792 49.8171 49.1204C49.8587 49.0639 49.898 49.0052 49.9396 48.9464C49.9442 48.9396 49.9488 48.9306 49.9534 48.9238H62.1185C62.6384 48.9238 63.1143 48.6391 63.3523 48.1894C63.5903 47.7375 63.5487 47.1929 63.246 46.7793L61.698 44.6574L61.5778 44.1852H71.5016L68.2646 46.063L68.2622 46.0653C68.2622 46.0653 68.2599 46.0653 68.2599 46.0675C68.1005 46.1602 67.9665 46.2822 67.8602 46.4223C67.8556 46.4268 67.8533 46.4336 67.8487 46.4404C67.8186 46.481 67.7886 46.524 67.7632 46.5692C67.7516 46.5895 67.7424 46.6121 67.7308 46.6324C67.7146 46.6641 67.6985 46.6935 67.6869 46.7251C67.6754 46.7567 67.6661 46.7884 67.6546 46.82C67.6476 46.8426 67.6384 46.8675 67.6315 46.8901C67.6222 46.9262 67.6153 46.9624 67.6107 46.9985C67.606 47.0211 67.6014 47.0415 67.5991 47.0641C67.5945 47.1002 67.5945 47.1341 67.5922 47.1703C67.5922 47.1906 67.5876 47.2109 67.5876 47.2313V49.7825L63.7336 51.6671C63.7313 51.6671 63.7313 51.6694 63.7289 51.6694C63.6758 51.6965 63.625 51.7259 63.5741 51.7575C63.5672 51.762 63.5603 51.7665 63.5533 51.7733C63.5117 51.8027 63.4725 51.8343 63.4332 51.866C63.4263 51.8727 63.4193 51.8795 63.4101 51.884C63.3685 51.9225 63.3269 51.9631 63.2899 52.0083C63.2876 52.0129 63.2853 52.0151 63.2807 52.0196C63.2483 52.058 63.2183 52.0987 63.1906 52.1417C63.1813 52.1552 63.1721 52.171 63.1629 52.1846C63.1536 52.1982 63.1444 52.2117 63.1374 52.2253L60.5958 56.7447C60.5727 56.7877 60.5496 56.8306 60.5311 56.8758C60.5265 56.8848 60.5242 56.8916 60.5219 56.9006C60.5057 56.9436 60.4895 56.9865 60.478 57.0294C60.4734 57.043 60.4711 57.0566 60.4664 57.0701C60.4549 57.1131 60.448 57.156 60.441 57.1967C60.4387 57.208 60.4364 57.2193 60.4364 57.2306C60.4295 57.2848 60.4249 57.3413 60.4249 57.3955V57.3978V61.4653C60.4249 61.9444 60.6836 62.3873 61.1042 62.6313L68.4979 66.9248H68.5002C68.5002 66.9248 68.5002 66.9248 68.5025 66.9248C68.5257 66.9383 68.5488 66.9474 68.5719 66.9587C68.6042 66.9745 68.6366 66.9926 68.6689 67.0061C68.6897 67.0152 68.7105 67.0197 68.7313 67.0265C68.7683 67.04 68.8052 67.0536 68.8445 67.0649C68.8699 67.0717 68.893 67.0739 68.9184 67.0784C68.9531 67.0852 68.9878 67.0943 69.0247 67.0988C69.0848 67.1056 69.1472 67.1101 69.2073 67.1101C69.265 67.1101 69.3251 67.1056 69.3829 67.0988C69.4037 67.0965 69.4245 67.0897 69.4452 67.0875C69.4822 67.0807 69.5192 67.0762 69.5562 67.0671C69.5816 67.0604 69.607 67.0513 69.6324 67.0423C69.6624 67.0332 69.6948 67.0242 69.7248 67.0129C69.7525 67.0016 69.778 66.9881 69.8034 66.9768C69.8288 66.9655 69.8542 66.9542 69.8796 66.9429L69.8958 66.9338L70.1962 66.7734C70.4157 67.1191 70.7068 67.4084 71.0626 67.6253C71.4924 67.8874 71.9799 68.0185 72.4882 68.0185C72.8117 68.0185 73.1444 67.9643 73.4748 67.8558C75.1038 67.3293 76.3214 65.6232 76.3076 63.8877C76.3076 63.8855 76.3076 63.8832 76.3076 63.8832C76.3053 63.7499 76.296 63.6211 76.2799 63.4945L76.303 63.481L78.1722 64.6425C78.1791 64.647 78.1861 64.6492 78.193 64.6538C78.1999 64.6583 78.2069 64.6628 78.2138 64.6673C78.2392 64.6809 78.2646 64.6922 78.2877 64.7035C78.3131 64.7148 78.3363 64.7283 78.364 64.7396C78.3986 64.7532 78.4333 64.7645 78.4679 64.778C78.4934 64.7871 78.5165 64.7961 78.5419 64.8029C78.5812 64.8142 78.6228 64.821 78.662 64.8278C78.6828 64.8323 78.7059 64.8368 78.7267 64.8413C78.7891 64.8504 78.8515 64.8549 78.9139 64.8549C78.9716 64.8549 79.0294 64.8504 79.0872 64.8436C79.108 64.8413 79.1311 64.8345 79.1519 64.8323C79.1865 64.8255 79.2235 64.821 79.2582 64.8119C79.2813 64.8052 79.3067 64.7961 79.3298 64.7893C79.3621 64.7803 79.3945 64.7713 79.4245 64.7577C79.4453 64.7487 79.4661 64.7374 79.4869 64.7283C79.5192 64.7148 79.5493 64.7012 79.5816 64.6854C79.5839 64.6854 79.5863 64.6831 79.5863 64.6809C79.5886 64.6809 79.5886 64.6786 79.5909 64.6786L84.2905 62.1093C84.4708 62.3195 84.6833 62.5048 84.9259 62.6516C85.3557 62.9138 85.8432 63.0448 86.3516 63.0448C86.675 63.0448 87.0078 62.9906 87.3382 62.8821C88.9671 62.3556 90.1848 60.6495 90.1709 58.9141C90.1709 58.9118 90.1709 58.9095 90.1709 58.9095C90.1709 58.905 90.1709 58.9005 90.1709 58.8937L93.2254 57.2215C93.6645 56.982 93.9348 56.53 93.9348 56.0374V44.7388C93.9348 44.671 93.9279 44.6055 93.9186 44.5422C93.914 44.497 93.9047 44.4541 93.8932 44.4111C93.8932 44.4066 93.8909 44.4044 93.8886 44.3998C93.8701 44.332 93.847 44.2643 93.8193 44.201C93.8169 44.1942 93.8146 44.1874 93.8123 44.1829H94.1427L103.676 76.3456C104.346 78.646 103.896 81.0616 102.426 82.9734Z" fill="#999999"/>
<path d="M78.1983 10.7877C78.1983 7.24669 75.2524 4.36328 71.6294 4.36328C68.0065 4.36328 65.0605 7.24669 65.0605 10.7877C65.0605 14.3309 68.0065 17.2143 71.6294 17.2143C75.2524 17.2143 78.1983 14.3309 78.1983 10.7877ZM67.8332 10.7877C67.8332 8.74037 69.5361 7.07495 71.6294 7.07495C73.7228 7.07495 75.4257 8.74037 75.4257 10.7877C75.4257 12.8373 73.7228 14.5027 71.6294 14.5027C69.5361 14.5027 67.8332 12.8373 67.8332 10.7877Z" fill="#999999"/>
<path d="M33.8593 75.0858C33.6051 74.6926 33.1638 74.4531 32.6878 74.4531H29.0048L26.1767 71.6872C26.1651 71.6759 26.1536 71.6646 26.142 71.6555L21.0334 66.9937C20.599 66.5983 19.9544 66.5147 19.4299 66.7903L10.5758 71.4522C10.2316 71.6329 9.98204 71.947 9.8873 72.3176L8.26992 78.6449C8.16594 79.0494 8.26068 79.4787 8.52177 79.8086C8.78517 80.1385 9.18721 80.3306 9.61466 80.3306H34.7257C35.2317 80.3306 35.6962 80.0617 35.9388 79.6301C36.1814 79.1962 36.1675 78.6697 35.8972 78.2517L33.8593 75.0858ZM11.3938 77.619L12.4312 73.5582L19.8689 69.6421L24.2312 73.6238L27.4521 76.7693C27.7132 77.0246 28.0644 77.167 28.4318 77.167H31.923L32.2142 77.619H11.3938Z" fill="#999999"/>
</svg>
