<svg width="46" height="22" viewBox="0 0 46 22" fill="none" xmlns="http://www.w3.org/2000/svg">
<path d="M18 11.5C18 14.5376 15.5376 17 12.5 17C9.46243 17 7 14.5376 7 11.5C7 8.46243 9.46243 6 12.5 6C15.5376 6 18 8.46243 18 11.5Z" fill="#FFCD11"/>
<path fill-rule="evenodd" clip-rule="evenodd" d="M33.7039 0.0650616C33.7839 0.00449158 33.8877 -0.0151736 33.9845 0.0119216L45.7658 3.31289C45.8758 3.34371 45.9611 3.43059 45.9897 3.541C46.0184 3.65142 45.9861 3.76871 45.9049 3.84898L40.6838 9.01209C40.4667 9.22681 40.2052 9.38834 39.9165 9.48739C37.4577 10.3328 34.7509 9.29135 33.5081 7.04854H26.5683L24.5022 9.0917C24.3762 9.21622 24.173 9.21526 24.0483 9.08955C23.9236 8.96384 23.9245 8.76098 24.0505 8.63646L26.2104 6.50054C26.2705 6.44111 26.3516 6.40777 26.4362 6.40777H33.7014C33.8225 6.40777 33.9332 6.4758 33.9878 6.58369C35.0379 8.65877 37.4857 9.64544 39.7075 8.88154L39.7077 8.88146C39.9058 8.81352 40.0841 8.70323 40.2321 8.55685L45.0615 3.7811L34.2187 0.743079V3.93332L40.8239 5.05307C40.9986 5.08269 41.1163 5.24812 41.0866 5.42257C41.0569 5.59702 40.8912 5.71442 40.7164 5.6848L33.844 4.51975C33.6897 4.49359 33.5768 4.36013 33.5768 4.20389V0.320391C33.5768 0.22012 33.6238 0.125632 33.7039 0.0650616ZM14.4556 0.845987C14.5123 0.801118 14.5825 0.776702 14.6549 0.776702H19.7601C19.9002 0.776702 20.0241 0.867363 20.0662 1.0007L23.0115 10.3211C23.0477 10.4356 23.0167 10.5606 22.9313 10.6451L20.3787 13.1694C20.3186 13.2288 20.2374 13.2621 20.1528 13.2621H15.0476C14.963 13.2621 14.8818 13.2288 14.8217 13.1694L11.4848 9.86947C11.484 9.86866 11.4831 9.86784 11.4823 9.86702L10.203 8.60194H4.41399L0.65004 13.906L1.01017 18.4466H2.15991V14.4951C2.15991 14.4197 2.18659 14.3466 2.23526 14.2889L5.18059 10.7937C5.24157 10.7214 5.33145 10.6796 5.42618 10.6796H9.64782C9.82507 10.6796 9.96875 10.8231 9.96875 11C9.96875 11.1769 9.82507 11.3204 9.64782 11.3204H5.57558L2.80177 14.612V18.767C2.80177 18.9439 2.65809 19.0874 2.48084 19.0874H0.713642C0.546221 19.0874 0.406928 18.9589 0.393713 18.7923L0.00100171 13.8408C-0.00492982 13.766 0.0156155 13.6915 0.0590567 13.6303L3.98617 8.09635C4.04634 8.01156 4.14396 7.96117 4.24804 7.96117H10.3351C10.4197 7.96117 10.5008 7.99451 10.5609 8.05394L11.6985 9.17892L13.3522 7.38012V1.87379C13.3522 1.77594 13.397 1.68346 13.4738 1.62269L14.4556 0.845987ZM12.1549 9.63019L15.1796 12.6214H20.0208L22.3405 10.3274L19.5249 1.41748H14.7666L13.994 2.02869V7.50486C13.994 7.58508 13.9639 7.66238 13.9096 7.72149L12.1549 9.63019ZM32.6067 8.85259C32.7312 8.97851 32.7299 9.18137 32.6038 9.30568L28.8115 13.0431C30.2804 13.864 31.2733 15.4229 31.2733 17.2136C31.2733 19.8599 29.1048 22 26.4362 22C23.7676 22 21.5991 19.8599 21.5991 17.2136C21.5991 14.5673 23.7676 12.4272 26.4362 12.4272C27.0657 12.4272 27.6673 12.5463 28.2192 12.763C28.2351 12.7238 28.2591 12.6871 28.2912 12.6555L32.1528 8.84967C32.279 8.72536 32.4822 8.72667 32.6067 8.85259ZM8.56786 13.068C6.24802 13.068 4.37262 14.9269 4.37262 17.2136C4.37262 19.5003 6.24802 21.3592 8.56786 21.3592C10.8877 21.3592 12.7631 19.5003 12.7631 17.2136C12.7631 14.9269 10.8877 13.068 8.56786 13.068ZM3.73076 17.2136C3.73076 14.5673 5.89928 12.4272 8.56786 12.4272C11.2365 12.4272 13.405 14.5673 13.405 17.2136C13.405 17.64 13.3487 18.0533 13.243 18.4466H18.6463L19.4392 17.6625V15.7864H15.244C15.0667 15.7864 14.923 15.643 14.923 15.466C14.923 15.2891 15.0667 15.1456 15.244 15.1456H19.7601C19.9374 15.1456 20.0811 15.2891 20.0811 15.466V17.7961C20.0811 17.8816 20.0468 17.9636 19.986 18.0237L19.0042 18.9946C18.9441 19.054 18.8629 19.0874 18.7784 19.0874H13.084C13.0631 19.0874 13.0427 19.0854 13.0229 19.0816C12.287 20.7979 10.5679 22 8.56786 22C5.89928 22 3.73076 19.8599 3.73076 17.2136ZM26.4362 13.068C24.1164 13.068 22.241 14.9269 22.241 17.2136C22.241 19.5003 24.1164 21.3592 26.4362 21.3592C28.7561 21.3592 30.6315 19.5003 30.6315 17.2136C30.6315 14.9269 28.7561 13.068 26.4362 13.068ZM8.56786 15.5689C7.64478 15.5689 6.90168 16.3081 6.90168 17.2136C6.90168 18.1191 7.64478 18.8582 8.56786 18.8582C9.49095 18.8582 10.2341 18.1191 10.2341 17.2136C10.2341 16.3081 9.49095 15.5689 8.56786 15.5689ZM6.25981 17.2136C6.25981 15.9485 7.29604 14.9282 8.56786 14.9282C9.83969 14.9282 10.8759 15.9485 10.8759 17.2136C10.8759 18.4787 9.83969 19.499 8.56786 19.499C7.29604 19.499 6.25981 18.4787 6.25981 17.2136ZM26.4362 15.5689C25.5131 15.5689 24.77 16.3081 24.77 17.2136C24.77 18.1191 25.5131 18.8582 26.4362 18.8582C27.3593 18.8582 28.1024 18.1191 28.1024 17.2136C28.1024 16.3081 27.3593 15.5689 26.4362 15.5689ZM24.1282 17.2136C24.1282 15.9485 25.1644 14.9282 26.4362 14.9282C27.708 14.9282 28.7443 15.9485 28.7443 17.2136C28.7443 18.4787 27.708 19.499 26.4362 19.499C25.1644 19.499 24.1282 18.4787 24.1282 17.2136Z" fill="black"/>
</svg>
