<svg width="42" height="20" viewBox="0 0 42 20" fill="none" xmlns="http://www.w3.org/2000/svg">
<path d="M16.3633 10.4531C16.3633 13.2145 14.1247 15.4531 11.3633 15.4531C8.60186 15.4531 6.36328 13.2145 6.36328 10.4531C6.36328 7.6917 8.60186 5.45312 11.3633 5.45312C14.1247 5.45312 16.3633 7.6917 16.3633 10.4531Z" fill="#FFCD11"/>
<path fill-rule="evenodd" clip-rule="evenodd" d="M30.6399 0.0591469C30.7126 0.00408326 30.807 -0.0137942 30.895 0.0108379L41.6053 3.01172C41.7053 3.03974 41.7828 3.11872 41.8089 3.21909C41.8349 3.31947 41.8055 3.4261 41.7317 3.49907L36.9853 8.19281C36.7879 8.38801 36.5502 8.53485 36.2877 8.6249C34.0525 9.39342 31.5917 8.44668 30.4619 6.40777H24.153L22.2747 8.26518C22.1602 8.37839 21.9755 8.37751 21.8621 8.26323C21.7487 8.14895 21.7496 7.96453 21.8641 7.85133L23.8276 5.90958C23.8822 5.85555 23.956 5.82524 24.0329 5.82524H30.6376C30.7477 5.82524 30.8484 5.88709 30.898 5.98517C31.8527 7.87161 34.0779 8.76858 36.0977 8.07413L36.0979 8.07405C36.278 8.01229 36.4401 7.91203 36.5747 7.77895L40.965 3.43736L31.1079 0.675527V3.57574L37.1126 4.5937C37.2715 4.62063 37.3784 4.77102 37.3514 4.92961C37.3245 5.0882 37.1738 5.19493 37.015 5.168L30.7673 4.10887C30.627 4.08509 30.5244 3.96376 30.5244 3.82171V0.291265C30.5244 0.200109 30.5671 0.114211 30.6399 0.0591469ZM13.1414 0.769079C13.193 0.728289 13.2568 0.706093 13.3226 0.706093H17.9638C18.0911 0.706093 18.2037 0.788512 18.242 0.909726L20.9196 9.3828C20.9525 9.48687 20.9243 9.60056 20.8467 9.67736L18.5261 11.9722C18.4715 12.0262 18.3977 12.0565 18.3208 12.0565H13.6796C13.6027 12.0565 13.5289 12.0262 13.4743 11.9722L10.4407 8.97224C10.44 8.97151 10.4392 8.97076 10.4385 8.97002L9.27547 7.81995H4.01272L0.590945 12.6418L0.918333 16.7696H1.96356V13.1774C1.96356 13.1088 1.98781 13.0424 2.03205 12.9899L4.70963 9.8125C4.76506 9.74671 4.84678 9.70874 4.93289 9.70874H8.77075C8.93188 9.70874 9.0625 9.83914 9.0625 10C9.0625 10.1609 8.93188 10.2913 8.77075 10.2913H5.06871L2.54707 13.2836V17.0609C2.54707 17.2218 2.41644 17.3522 2.25531 17.3522H0.648765C0.496564 17.3522 0.369934 17.2354 0.357921 17.0839L0.000910642 12.5826C-0.00448165 12.5146 0.0141959 12.4469 0.0536879 12.3912L3.62379 7.36031C3.67849 7.28323 3.76723 7.23742 3.86186 7.23742H9.39551C9.47241 7.23742 9.5462 7.26773 9.60083 7.32176L10.635 8.34447L12.1383 6.7092V1.70344C12.1383 1.61449 12.1791 1.53042 12.2489 1.47517L13.1414 0.769079ZM11.0499 8.75472L13.7997 11.474H18.2007L20.3095 9.38858L17.7499 1.28862H13.4242L12.7219 1.84426V6.8226C12.7219 6.89553 12.6944 6.9658 12.6451 7.01954L11.0499 8.75472ZM29.6425 8.04781C29.7557 8.16228 29.7545 8.3467 29.6398 8.45971L26.1923 11.8574C27.5276 12.6036 28.4303 14.0208 28.4303 15.6487C28.4303 18.0545 26.4589 20 24.0329 20C21.6069 20 19.6356 18.0545 19.6356 15.6487C19.6356 13.243 21.6069 11.2974 24.0329 11.2974C24.6052 11.2974 25.1521 11.4057 25.6538 11.6027C25.6683 11.5671 25.6901 11.5337 25.7193 11.505L29.2299 8.04516C29.3445 7.93215 29.5293 7.93333 29.6425 8.04781ZM7.78897 11.88C5.68002 11.88 3.97511 13.5699 3.97511 15.6487C3.97511 17.7276 5.68002 19.4175 7.78897 19.4175C9.89792 19.4175 11.6028 17.7276 11.6028 15.6487C11.6028 13.5699 9.89792 11.88 7.78897 11.88ZM3.3916 15.6487C3.3916 13.243 5.36298 11.2974 7.78897 11.2974C10.215 11.2974 12.1863 13.243 12.1863 15.6487C12.1863 16.0364 12.1351 16.4121 12.0391 16.7696H16.9512L17.672 16.0568V14.3513H13.8581C13.697 14.3513 13.5664 14.2209 13.5664 14.06C13.5664 13.8992 13.697 13.7688 13.8581 13.7688H17.9638C18.1249 13.7688 18.2555 13.8992 18.2555 14.06V16.1783C18.2555 16.256 18.2244 16.3305 18.1691 16.3852L17.2766 17.2678C17.2219 17.3219 17.1481 17.3522 17.0712 17.3522H11.8946C11.8756 17.3522 11.857 17.3503 11.839 17.3469C11.17 18.9072 9.60716 20 7.78897 20C5.36298 20 3.3916 18.0545 3.3916 15.6487ZM24.0329 11.88C21.924 11.88 20.2191 13.5699 20.2191 15.6487C20.2191 17.7276 21.924 19.4175 24.0329 19.4175C26.1419 19.4175 27.8468 17.7276 27.8468 15.6487C27.8468 13.5699 26.1419 11.88 24.0329 11.88ZM7.78897 14.1536C6.9498 14.1536 6.27425 14.8256 6.27425 15.6487C6.27425 16.4719 6.9498 17.1439 7.78897 17.1439C8.62814 17.1439 9.30368 16.4719 9.30368 15.6487C9.30368 14.8256 8.62814 14.1536 7.78897 14.1536ZM5.69074 15.6487C5.69074 14.4987 6.63276 13.571 7.78897 13.571C8.94517 13.571 9.88719 14.4987 9.88719 15.6487C9.88719 16.7988 8.94517 17.7264 7.78897 17.7264C6.63276 17.7264 5.69074 16.7988 5.69074 15.6487ZM24.0329 14.1536C23.1938 14.1536 22.5182 14.8256 22.5182 15.6487C22.5182 16.4719 23.1938 17.1439 24.0329 17.1439C24.8721 17.1439 25.5476 16.4719 25.5476 15.6487C25.5476 14.8256 24.8721 14.1536 24.0329 14.1536ZM21.9347 15.6487C21.9347 14.4987 22.8767 13.571 24.0329 13.571C25.1891 13.571 26.1312 14.4987 26.1312 15.6487C26.1312 16.7988 25.1891 17.7264 24.0329 17.7264C22.8767 17.7264 21.9347 16.7988 21.9347 15.6487Z" fill="black"/>
</svg>
