<svg width="56" height="50" viewBox="0 0 56 50" fill="none" xmlns="http://www.w3.org/2000/svg">
<path d="M50.626 23.766L48.8466 17.3343C48.1703 14.8881 45.9995 13.1785 43.568 13.1785H41.8226C42.642 11.0244 43.2723 8.53377 43.2723 5.96945C43.2723 2.67863 40.7172 0 37.5755 0C34.4337 0 31.8787 2.67863 31.8787 5.96945C31.8787 8.53377 32.509 11.0244 33.3283 13.1785H15.6646H12.432C10.0005 13.1785 7.8297 14.8881 7.15336 17.3343L0.22145 42.3932C-0.264596 44.1498 0.0578184 45.9952 1.10627 47.4571C2.15351 48.919 3.75589 49.7572 5.50129 49.7572H42.3511H50.4987C52.2441 49.7572 53.8465 48.919 54.8937 47.4571C55.9422 45.9952 56.2646 44.1498 55.7785 42.3932L50.626 23.766ZM46.1352 31.9429L44.225 33.0618C44.2225 33.0631 44.2201 33.0657 44.2177 33.0669L42.1196 34.2964V29.8129L47.8164 26.3735V30.9573L46.1352 31.9429ZM35.5755 35.5271L33.1514 34.0182V33.4683L35.5755 34.8971V35.5271ZM37.6627 26.4167L40.3596 24.7402L42.8105 23.2161L43.3438 22.8846L43.911 23.2161L46.517 24.7402L47.0709 25.0641L41.8675 28.2063L41.3802 28.5009L39.5051 27.4506L37.6627 26.4167ZM35.9185 29.3455L38.3342 30.7693L37.8676 31.0437L35.3464 29.6453L35.9185 29.3455ZM34.0495 30.6512L35.4422 31.4234L36.8349 32.1956L36.064 33.4378L33.4071 31.8718L34.0495 30.6512ZM39.0906 34.384L38.7718 34.5682L38.1839 34.9073L37.03 35.5741V34.6787L38.3912 32.4852L38.7415 32.2795L39.0918 32.0737V34.384H39.0906ZM40.5451 30.7693C40.5451 30.735 40.5426 30.702 40.539 30.6677C40.539 30.6677 40.539 30.6677 40.539 30.6664C40.5378 30.6563 40.5342 30.6461 40.533 30.6347C40.5293 30.6131 40.5257 30.5902 40.5196 30.5686C40.516 30.5572 40.5123 30.5458 40.5087 30.5331C40.5026 30.5128 40.4966 30.4937 40.4893 30.4734C40.4845 30.462 40.4784 30.4505 40.4736 30.4391C40.4651 30.42 40.4566 30.4023 40.4469 30.3845C40.4408 30.3731 40.4336 30.3629 40.4263 30.3527C40.4154 30.3362 40.4057 30.3184 40.3936 30.3032C40.3863 30.293 40.3766 30.2829 40.3693 30.2727C40.3572 30.2575 40.3451 30.2422 40.3317 30.2283C40.322 30.2181 40.3124 30.2105 40.3027 30.2003C40.2881 30.1876 40.2748 30.1736 40.2602 30.1622C40.2493 30.1533 40.2384 30.147 40.2263 30.1381C40.213 30.1279 40.1996 30.1178 40.1851 30.1089C40.1827 30.1076 40.1814 30.1063 40.179 30.1063C40.1778 30.1051 40.1766 30.1038 40.1742 30.1038L36.9088 28.1796V27.7211L40.6663 29.8269V34.2062L40.5451 34.1249V30.7693ZM33.3332 5.96945C33.3332 3.51943 35.2361 1.52411 37.5755 1.52411C39.9148 1.52411 41.8178 3.51943 41.8178 5.96945C41.8178 8.52107 41.1099 11.0409 40.236 13.1785C40.019 13.7119 39.7912 14.2213 39.5596 14.7026C38.8251 16.2369 38.0724 17.4714 37.5755 18.2284C37.0785 17.4714 36.3258 16.2369 35.5913 14.7026C35.3598 14.2213 35.1319 13.7119 34.9149 13.1785C34.041 11.0409 33.3332 8.52107 33.3332 5.96945ZM33.9598 14.7026C35.3283 17.7559 36.8894 19.8478 37.0046 20.0015C37.1427 20.1843 37.3537 20.291 37.5755 20.291C37.7973 20.291 38.0082 20.1843 38.1464 20.0015C38.2615 19.8478 39.8227 17.7559 41.1911 14.7026H43.568C45.3558 14.7026 46.9522 15.9587 47.4503 17.7585L48.9594 23.2161H46.894L43.6868 21.3401C43.4613 21.208 43.185 21.2119 42.962 21.3503L39.9608 23.2161H31.9356C31.8872 23.0637 31.7938 22.9316 31.6678 22.8376L28.8994 20.7788C28.8666 20.7546 28.8327 20.7343 28.7976 20.7153L25.1358 18.8444C24.8534 18.6996 24.5165 18.7606 24.2971 18.9955L23.1383 20.2352C23.1044 20.2275 23.0705 20.2186 23.0365 20.211C22.8935 20.178 22.7456 20.1462 22.5917 20.1196C22.548 20.1107 22.5044 20.1031 22.4608 20.0967C22.3844 20.084 22.3068 20.0713 22.2268 20.0599C22.1747 20.0523 22.1214 20.0459 22.0681 20.0396C21.9978 20.0307 21.9262 20.0218 21.8547 20.0142C21.7893 20.0078 21.7238 20.0015 21.6559 19.9951C21.5929 19.9888 21.5287 19.9837 21.4644 19.9799C21.405 19.9748 21.3444 19.971 21.2826 19.9684C21.1735 19.9621 21.062 19.957 20.9481 19.9532C20.8754 19.9507 20.8026 19.9494 20.7287 19.9481C20.6487 19.9468 20.5675 19.9456 20.4851 19.9456C18.1591 19.9456 16.804 19.8275 16.3058 19.2064C16.0367 18.8711 15.9179 18.2843 15.9482 17.3343C15.9495 17.286 15.9519 17.2365 15.9543 17.1857C15.9555 17.1641 15.9567 17.1425 15.9579 17.1196C15.9592 17.0764 15.9616 17.0307 15.9652 16.985C15.9688 16.9291 15.9725 16.8707 15.9773 16.8122C15.9858 16.6941 15.9967 16.5722 16.0088 16.4452C16.0149 16.3817 16.0222 16.3169 16.0295 16.2509C16.0791 15.7949 16.1495 15.2805 16.2416 14.7026H33.9598ZM30.9878 25.5162C31.0096 25.6089 31.0484 25.6966 31.1017 25.774L31.1732 25.8795H26.7915H25.291H21.6947L21.1408 25.2978L21.296 24.3858L23.5674 21.9549L24.6449 20.8016L24.9698 20.4549L28.1067 22.0577L29.6642 23.2161L30.6072 23.9172L30.8035 24.7402L30.9878 25.5162ZM5.50129 48.2331C4.21769 48.2331 3.03955 47.6159 2.26866 46.5414C1.49777 45.4669 1.26142 44.1091 1.61777 42.8174L8.54968 17.7585C9.04785 15.9587 10.6442 14.7026 12.432 14.7026H14.7665C14.7556 14.7737 14.7446 14.8436 14.7349 14.9135C14.724 14.9833 14.7143 15.0519 14.7046 15.1205C14.7034 15.1218 14.7034 15.123 14.7034 15.1243C14.6743 15.3262 14.6477 15.5231 14.6234 15.7149C14.615 15.7797 14.6077 15.8432 14.6004 15.9067C14.5931 15.9702 14.5859 16.0324 14.5786 16.0934C14.564 16.2242 14.5507 16.3499 14.541 16.4744C14.5313 16.5786 14.5228 16.6814 14.5156 16.7818C14.5071 16.9024 14.4998 17.0193 14.495 17.1349C14.4925 17.1895 14.4901 17.2428 14.4889 17.2962C14.4768 17.6937 14.4865 18.0582 14.524 18.3922C14.5374 18.5154 14.5543 18.6336 14.575 18.7479C14.5956 18.8622 14.6198 18.9727 14.6489 19.0794C14.6768 19.1861 14.7095 19.2889 14.7459 19.388C14.7822 19.4871 14.8234 19.5836 14.8683 19.675C14.9131 19.7678 14.9628 19.8567 15.0162 19.9418C15.0707 20.0269 15.1289 20.1081 15.1919 20.1869C16.1507 21.3808 17.9094 21.4697 20.4851 21.4697C21.0135 21.4697 21.4863 21.4989 21.9093 21.551L20.0996 23.4879C19.9978 23.5971 19.9287 23.7368 19.9033 23.8867L19.8863 23.9832L19.7724 23.8638C19.6924 23.78 19.5954 23.7178 19.4875 23.6797L18.2609 23.2516C18.0197 23.1665 17.7542 23.2211 17.5603 23.3926L14.5604 26.0598C14.3277 26.2668 14.2428 26.6034 14.3483 26.9044C14.4525 27.2042 14.7253 27.4036 15.0307 27.4036H20.1724H21.3941H24.1371C23.4947 27.8214 22.6389 28.0894 21.6099 28.3828C19.5203 28.9785 16.9203 29.719 16.8488 33.2257C16.7797 36.6232 17.6924 38.5423 19.8996 39.6435C22.0511 40.718 25.4716 40.9923 30.652 41.1041C30.7999 41.1079 30.9466 41.1117 31.0908 41.1181C31.2011 41.1219 31.3102 41.1269 31.4181 41.1333C31.5344 41.1384 31.6484 41.146 31.7623 41.1549C31.7878 41.1562 31.8132 41.1574 31.8375 41.16C31.9272 41.1663 32.0156 41.1727 32.1041 41.1803C32.1405 41.1841 32.1768 41.1866 32.212 41.1904C32.2968 41.1981 32.3805 41.2057 32.4641 41.2146C32.4908 41.2171 32.5174 41.2197 32.5429 41.2235C32.6241 41.2311 32.7041 41.2413 32.7829 41.2514C32.8168 41.2552 32.8508 41.259 32.8835 41.2641C32.9514 41.2717 33.0192 41.2806 33.0859 41.2908C33.1417 41.2971 33.1974 41.306 33.252 41.3149C33.2786 41.3175 33.3041 41.3213 33.3307 41.3264C33.412 41.3378 33.492 41.3505 33.5707 41.3645C33.6835 41.3835 33.7938 41.4026 33.9028 41.4241C33.9853 41.4394 34.0665 41.4559 34.1465 41.4724C34.3319 41.5105 34.5125 41.5512 34.6883 41.5956C34.7768 41.6172 34.8628 41.6388 34.9489 41.6629C35.0192 41.6807 35.0883 41.701 35.1561 41.7213C35.2216 41.7391 35.2858 41.7582 35.3489 41.7785C35.4058 41.795 35.4616 41.8128 35.5173 41.8306C35.5852 41.8522 35.6507 41.8738 35.7161 41.8966C35.7767 41.9169 35.8361 41.9373 35.8943 41.9589C35.9561 41.9804 36.0179 42.0033 36.0785 42.0274C36.1379 42.049 36.1961 42.0719 36.2543 42.096C36.3185 42.1202 36.3804 42.1468 36.4422 42.1722C36.4894 42.1926 36.5367 42.2129 36.5828 42.2332C36.7985 42.3285 37.0058 42.4288 37.2034 42.5342C37.3197 42.5952 37.4324 42.6587 37.5427 42.7247C37.6179 42.7679 37.6918 42.8124 37.7645 42.8594C37.8118 42.8886 37.8591 42.9191 37.9064 42.9508C37.9755 42.9953 38.0445 43.0422 38.1112 43.0892C38.167 43.1286 38.2215 43.168 38.2761 43.2086C38.3282 43.2467 38.3791 43.2861 38.43 43.3242C38.4336 43.3267 38.4373 43.3293 38.4409 43.3331C38.4918 43.3737 38.5415 43.4131 38.5912 43.4538C38.6421 43.4957 38.6918 43.5376 38.7415 43.5808C38.79 43.6227 38.8385 43.6659 38.8869 43.709C39.0772 43.8818 39.2554 44.0609 39.4203 44.245C39.4518 44.2806 39.4845 44.3174 39.516 44.353C39.5657 44.4101 39.6142 44.4673 39.6602 44.5244C39.699 44.5714 39.7366 44.6184 39.773 44.6667C39.8106 44.715 39.8469 44.7632 39.8833 44.8115C39.9196 44.8598 39.9548 44.908 39.9887 44.9576C40.0227 45.0058 40.0566 45.0553 40.0893 45.1036C40.1233 45.1531 40.156 45.2027 40.1875 45.2522C40.2202 45.3017 40.2505 45.3513 40.2808 45.4021C40.3124 45.4516 40.3427 45.5024 40.3717 45.5532C40.6251 45.9889 40.8348 46.4385 41.0093 46.8932C41.0311 46.9503 41.0529 47.0088 41.0735 47.0659C41.0954 47.1243 41.116 47.1815 41.1354 47.2399C41.1754 47.3555 41.2141 47.4723 41.2493 47.5879C41.2675 47.6438 41.2832 47.6984 41.3002 47.753C41.3317 47.8597 41.362 47.9664 41.3899 48.0731C41.4032 48.1226 41.4166 48.1722 41.4287 48.2217C41.4299 48.2255 41.4311 48.2293 41.4323 48.2331H5.50129ZM19.5748 25.8134L19.5627 25.8795H17.0125L18.1894 24.8329L18.8645 25.0691L19.5748 25.8134ZM53.7313 46.5414C52.9604 47.6159 51.7823 48.2331 50.4987 48.2331H42.9317C42.9135 48.1569 42.8953 48.0807 42.8759 48.0058C42.8008 47.706 42.7196 47.4152 42.6299 47.1332C42.608 47.0646 42.5862 46.9973 42.5644 46.93C42.5608 46.9211 42.5583 46.9135 42.5559 46.9046C42.5099 46.7687 42.4626 46.6341 42.4129 46.5033C42.1087 45.6904 41.739 44.9563 41.299 44.2946C41.2772 44.2615 41.2554 44.2285 41.2335 44.1968C41.1814 44.1193 41.1281 44.0444 41.0735 43.9694C41.036 43.9173 40.9984 43.8665 40.9608 43.8157C40.8929 43.7268 40.8239 43.6392 40.7536 43.5528C40.7245 43.5173 40.6954 43.4817 40.6663 43.4474C40.5923 43.3585 40.516 43.2721 40.4396 43.187C40.402 43.1464 40.3657 43.1058 40.3281 43.0664C40.2796 43.0156 40.2311 42.9648 40.1827 42.9152C40.1402 42.8733 40.099 42.8301 40.0554 42.7895C40.0093 42.7438 39.9621 42.6993 39.9148 42.6549C39.8675 42.6104 39.8202 42.566 39.7718 42.5228C37.6639 40.6291 34.6907 39.6663 30.6811 39.58C25.8255 39.4758 22.4329 39.2205 20.5251 38.268C18.8694 37.4411 18.2476 36.0364 18.3033 33.2587C18.3494 31.0056 19.7348 30.4963 21.9917 29.8536C22.1965 29.7952 22.4062 29.7355 22.6171 29.672C22.7553 29.6313 22.8935 29.5881 23.0317 29.5437C23.125 29.5132 23.2171 29.4814 23.3104 29.4484C23.4341 29.4065 23.5565 29.3608 23.6789 29.3125C23.7492 29.2858 23.8183 29.2566 23.8886 29.2274C24.1577 29.1144 24.4219 28.9874 24.674 28.84C24.7201 28.8134 24.7662 28.7867 24.811 28.7575C25.0207 28.6279 25.2207 28.4844 25.4086 28.3231C25.428 28.3066 25.4473 28.2901 25.4655 28.2736C25.4849 28.2571 25.5043 28.2393 25.5225 28.2215C25.554 28.1936 25.5843 28.1644 25.6146 28.1339C25.6389 28.111 25.6631 28.0869 25.6873 28.0615C25.7164 28.0335 25.7443 28.0031 25.7722 27.9726C25.7964 27.9459 25.8207 27.918 25.8449 27.89C25.9019 27.8252 25.9564 27.7579 26.0085 27.6881C26.0279 27.6627 26.0461 27.6385 26.0643 27.6131C26.0885 27.5801 26.1104 27.5471 26.1334 27.5141C26.1552 27.4823 26.1758 27.4493 26.1976 27.4163C26.2001 27.4125 26.2025 27.4074 26.2049 27.4036H32.5865C32.8592 27.4036 33.1089 27.2435 33.2338 26.9908C33.3586 26.7368 33.3368 26.4307 33.178 26.1982L32.3659 25.0056L32.3029 24.7402H37.5088L35.8107 25.7956L35.8095 25.7969C35.8095 25.7969 35.8082 25.7969 35.8082 25.7982C35.7246 25.8502 35.6543 25.9188 35.5986 25.9976C35.5961 26.0001 35.5949 26.0039 35.5925 26.0077C35.5767 26.0306 35.561 26.0547 35.5476 26.0801C35.5416 26.0916 35.5367 26.1043 35.5307 26.1157C35.5222 26.1335 35.5137 26.15 35.5077 26.1678C35.5016 26.1855 35.4967 26.2033 35.4907 26.2211C35.487 26.2338 35.4822 26.2478 35.4786 26.2605C35.4737 26.2808 35.4701 26.3011 35.4677 26.3214C35.4652 26.3342 35.4628 26.3456 35.4616 26.3583C35.4592 26.3786 35.4592 26.3977 35.458 26.418C35.458 26.4294 35.4555 26.4408 35.4555 26.4523V27.8862L33.4338 28.9455C33.4326 28.9455 33.4326 28.9467 33.4314 28.9467C33.4035 28.962 33.3768 28.9785 33.3501 28.9963C33.3465 28.9988 33.3429 29.0013 33.3392 29.0052C33.3174 29.0217 33.2968 29.0395 33.2762 29.0572C33.2726 29.061 33.2689 29.0649 33.2641 29.0674C33.2423 29.089 33.2204 29.1118 33.2011 29.1372C33.1998 29.1398 33.1986 29.1411 33.1962 29.1436C33.1792 29.1652 33.1635 29.1881 33.1489 29.2122C33.1441 29.2198 33.1392 29.2287 33.1344 29.2363C33.1295 29.2439 33.1247 29.2516 33.1211 29.2592L31.7878 31.7994C31.7756 31.8235 31.7635 31.8476 31.7538 31.873C31.7514 31.8781 31.7502 31.8819 31.749 31.887C31.7405 31.9111 31.732 31.9353 31.7259 31.9594C31.7235 31.967 31.7223 31.9746 31.7199 31.9823C31.7138 32.0064 31.7102 32.0305 31.7066 32.0534C31.7053 32.0597 31.7041 32.0661 31.7041 32.0724C31.7005 32.1029 31.6981 32.1347 31.6981 32.1652V32.1664V34.4526C31.6981 34.7219 31.8338 34.9708 32.0544 35.108L35.9331 37.5211H35.9343C35.9343 37.5211 35.9343 37.5211 35.9355 37.5211C35.9476 37.5288 35.9598 37.5338 35.9719 37.5402C35.9888 37.5491 36.0058 37.5592 36.0228 37.5669C36.0337 37.5719 36.0446 37.5745 36.0555 37.5783C36.0749 37.5859 36.0943 37.5935 36.1149 37.5999C36.1282 37.6037 36.1404 37.605 36.1537 37.6075C36.1719 37.6113 36.1901 37.6164 36.2094 37.6189C36.241 37.6228 36.2737 37.6253 36.3052 37.6253C36.3355 37.6253 36.367 37.6228 36.3973 37.6189C36.4082 37.6177 36.4191 37.6139 36.43 37.6126C36.4494 37.6088 36.4688 37.6062 36.4882 37.6012C36.5016 37.5974 36.5149 37.5923 36.5282 37.5872C36.544 37.5821 36.5609 37.577 36.5767 37.5707C36.5913 37.5643 36.6046 37.5567 36.6179 37.5504C36.6312 37.544 36.6446 37.5377 36.6579 37.5313L36.6664 37.5262L36.824 37.4361C36.9391 37.6304 37.0918 37.7929 37.2785 37.9149C37.504 38.0622 37.7597 38.1359 38.0264 38.1359C38.1961 38.1359 38.3706 38.1054 38.5439 38.0444C39.3984 37.7485 40.0372 36.7896 40.0299 35.8141C40.0299 35.8129 40.0299 35.8116 40.0299 35.8116C40.0287 35.7367 40.0239 35.6643 40.0154 35.5931L40.0275 35.5855L41.0081 36.2383C41.0117 36.2409 41.0154 36.2422 41.019 36.2447C41.0226 36.2472 41.0263 36.2498 41.0299 36.2523C41.0432 36.2599 41.0566 36.2663 41.0687 36.2726C41.082 36.279 41.0941 36.2866 41.1087 36.293C41.1269 36.3006 41.1451 36.3069 41.1632 36.3146C41.1766 36.3196 41.1887 36.3247 41.202 36.3285C41.2226 36.3349 41.2444 36.3387 41.2651 36.3425C41.276 36.345 41.2881 36.3476 41.299 36.3501C41.3317 36.3552 41.3644 36.3577 41.3972 36.3577C41.4275 36.3577 41.4578 36.3552 41.4881 36.3514C41.499 36.3501 41.5111 36.3463 41.522 36.345C41.5402 36.3412 41.5596 36.3387 41.5778 36.3336C41.5899 36.3298 41.6032 36.3247 41.6153 36.3209C41.6323 36.3158 41.6493 36.3107 41.665 36.3031C41.6759 36.298 41.6869 36.2917 41.6978 36.2866C41.7147 36.279 41.7305 36.2714 41.7475 36.2625C41.7487 36.2625 41.7499 36.2612 41.7499 36.2599C41.7511 36.2599 41.7511 36.2587 41.7523 36.2587L44.2177 34.8146C44.3122 34.9327 44.4237 35.0368 44.551 35.1194C44.7765 35.2667 45.0322 35.3404 45.2989 35.3404C45.4686 35.3404 45.6431 35.3099 45.8164 35.2489C46.6709 34.953 47.3097 33.9941 47.3024 33.0187C47.3024 33.0174 47.3024 33.0161 47.3024 33.0161C47.3024 33.0136 47.3024 33.011 47.3024 33.0072L48.9048 32.0674C49.1351 31.9327 49.2769 31.6787 49.2769 31.4018V25.0514C49.2769 25.0133 49.2733 24.9764 49.2684 24.9409C49.266 24.9155 49.2612 24.8913 49.2551 24.8672C49.2551 24.8646 49.2539 24.8634 49.2527 24.8608C49.243 24.8227 49.2309 24.7846 49.2163 24.7491C49.2151 24.7453 49.2139 24.7414 49.2127 24.7389H49.386L54.3871 42.8162C54.7386 44.1091 54.5022 45.4669 53.7313 46.5414Z" fill="#999999"/>
<path d="M41.0228 5.96635C41.0228 3.97611 39.4774 2.35547 37.5768 2.35547C35.6763 2.35547 34.1309 3.97611 34.1309 5.96635C34.1309 7.95786 35.6763 9.5785 37.5768 9.5785C39.4774 9.5785 41.0228 7.95786 41.0228 5.96635ZM35.5854 5.96635C35.5854 4.81564 36.4787 3.87958 37.5768 3.87958C38.675 3.87958 39.5683 4.81564 39.5683 5.96635C39.5683 7.11832 38.675 8.05438 37.5768 8.05438C36.4787 8.05438 35.5854 7.11832 35.5854 5.96635Z" fill="#999999"/>
<path d="M17.762 42.1087C17.6286 41.8877 17.3971 41.7531 17.1474 41.7531H15.2154L13.7318 40.1985C13.7257 40.1922 13.7197 40.1858 13.7136 40.1807L11.0337 37.5605C10.8058 37.3382 10.4676 37.2913 10.1925 37.4462L5.54779 40.0664C5.36719 40.168 5.23628 40.3446 5.18658 40.5529L4.33813 44.1091C4.28358 44.3365 4.33328 44.5778 4.47024 44.7632C4.60842 44.9487 4.81932 45.0566 5.04356 45.0566H18.2165C18.4819 45.0566 18.7256 44.9055 18.8528 44.6629C18.9801 44.419 18.9728 44.1231 18.831 43.8881L17.762 42.1087ZM5.97686 43.5325L6.52109 41.2501L10.4228 39.0491L12.7112 41.287L14.4009 43.0549C14.5378 43.1985 14.7221 43.2785 14.9148 43.2785H16.7462L16.899 43.5325H5.97686Z" fill="#999999"/>
</svg>
