<svg width="75" height="63" viewBox="0 0 75 63" fill="none" xmlns="http://www.w3.org/2000/svg">
<path d="M67.8027 29.7075L65.4196 21.6678C64.5138 18.6101 61.6064 16.4731 58.35 16.4731H56.0124C57.1098 13.7805 57.9539 10.6672 57.9539 7.46181C57.9539 3.34829 54.5319 0 50.3243 0C46.1166 0 42.6946 3.34829 42.6946 7.46181C42.6946 10.6672 43.5388 13.7805 44.6361 16.4731H20.9794H16.65C13.3936 16.4731 10.4862 18.6101 9.58039 21.6678L0.296584 52.9915C-0.35437 55.1872 0.0774354 57.494 1.48161 59.3214C2.88417 61.1487 5.03021 62.1965 7.3678 62.1965H56.7202H67.6322C69.9698 62.1965 72.1158 61.1487 73.5184 59.3214C74.9226 57.494 75.3544 55.1872 74.7034 52.9915L67.8027 29.7075ZM61.7882 39.9286L59.2299 41.3273C59.2266 41.3289 59.2234 41.3321 59.2201 41.3337L56.4101 42.8705V37.2662L64.0398 32.9669V38.6966L61.7882 39.9286ZM47.6458 44.4089L44.3991 42.5228V41.8353L47.6458 43.6214V44.4089ZM50.4412 33.0209L54.0531 30.9252L57.3354 29.0201L58.0497 28.6057L58.8094 29.0201L62.2996 30.9252L63.0414 31.3301L56.0725 35.2578L55.4199 35.6262L52.9086 34.3132L50.4412 33.0209ZM48.1052 36.6819L51.3405 38.4616L50.7155 38.8046L47.339 37.0566L48.1052 36.6819ZM45.602 38.314L47.4672 39.2793L49.3324 40.2445L48.3 41.7972L44.7417 39.8397L45.602 38.314ZM52.3534 42.98L51.9265 43.2102L51.1392 43.6341L49.5938 44.4676V43.3483L51.4168 40.6065L51.8859 40.3493L52.3551 40.0921V42.98H52.3534ZM54.3014 38.4616C54.3014 38.4188 54.2982 38.3775 54.2933 38.3346C54.2933 38.3346 54.2933 38.3346 54.2933 38.333C54.2917 38.3204 54.2868 38.3076 54.2852 38.2934C54.2803 38.2664 54.2755 38.2378 54.2673 38.2108C54.2625 38.1965 54.2576 38.1822 54.2527 38.1664C54.2446 38.1409 54.2365 38.1171 54.2268 38.0917C54.2203 38.0774 54.2122 38.0632 54.2057 38.0489C54.1943 38.0251 54.1829 38.0028 54.1699 37.9806C54.1618 37.9663 54.1521 37.9536 54.1423 37.9409C54.1277 37.9203 54.1148 37.898 54.0985 37.879C54.0888 37.8663 54.0758 37.8536 54.0661 37.8409C54.0498 37.8218 54.0336 37.8028 54.0157 37.7853C54.0027 37.7726 53.9898 37.7631 53.9768 37.7504C53.9573 37.7345 53.9394 37.7171 53.92 37.7028C53.9053 37.6917 53.8907 37.6837 53.8745 37.6726C53.8566 37.6599 53.8388 37.6472 53.8193 37.6361C53.8161 37.6345 53.8144 37.6329 53.8112 37.6329C53.8096 37.6313 53.8079 37.6297 53.8047 37.6297L49.4315 35.2245V34.6514L54.4638 37.2836V42.7577L54.3014 42.6561V38.4616ZM44.6426 7.46181C44.6426 4.39929 47.1913 1.90514 50.3243 1.90514C53.4573 1.90514 56.0059 4.39929 56.0059 7.46181C56.0059 10.6513 55.0579 13.8012 53.8875 16.4731C53.5969 17.1399 53.2917 17.7766 52.9817 18.3783C51.9979 20.2961 50.9898 21.8393 50.3243 22.7855C49.6587 21.8393 48.6506 20.2961 47.6669 18.3783C47.3568 17.7766 47.0517 17.1399 46.7611 16.4731C45.5907 13.8012 44.6426 10.6513 44.6426 7.46181ZM45.4819 18.3783C47.3146 22.1949 49.4055 24.8097 49.5597 25.0018C49.7448 25.2304 50.0272 25.3638 50.3243 25.3638C50.6214 25.3638 50.9038 25.2304 51.0889 25.0018C51.2431 24.8097 53.3339 22.1949 55.1667 18.3783H58.35C60.7444 18.3783 62.8823 19.9484 63.5495 22.1981L65.5706 29.0201H62.8044L58.5091 26.6752C58.2072 26.5101 57.837 26.5148 57.5384 26.6879L53.519 29.0201H42.7709C42.706 28.8296 42.581 28.6645 42.4122 28.547L38.7045 25.9734C38.6607 25.9433 38.6152 25.9179 38.5681 25.8941L33.6641 23.5555C33.2858 23.3745 32.8346 23.4507 32.5407 23.7444L30.9888 25.2939C30.9434 25.2844 30.8979 25.2733 30.8525 25.2638C30.6609 25.2225 30.4629 25.1828 30.2567 25.1495C30.1983 25.1384 30.1398 25.1288 30.0814 25.1209C29.9791 25.105 29.8752 25.0891 29.7681 25.0748C29.6983 25.0653 29.6269 25.0574 29.5554 25.0494C29.4613 25.0383 29.3655 25.0272 29.2697 25.0177C29.1821 25.0098 29.0944 25.0018 29.0035 24.9939C28.9191 24.9859 28.8331 24.9796 28.747 24.9748C28.6675 24.9685 28.5863 24.9637 28.5035 24.9605C28.3574 24.9526 28.2081 24.9463 28.0555 24.9415C27.9581 24.9383 27.8607 24.9367 27.7617 24.9351C27.6545 24.9335 27.5458 24.932 27.4354 24.932C24.3202 24.932 22.5053 24.7843 21.8381 24.008C21.4778 23.5888 21.3187 22.8554 21.3593 21.6678C21.3609 21.6075 21.3641 21.5456 21.3674 21.4821C21.369 21.4551 21.3706 21.4281 21.3722 21.3995C21.3739 21.3455 21.3771 21.2884 21.382 21.2312C21.3869 21.1614 21.3917 21.0883 21.3982 21.0153C21.4096 20.8677 21.4242 20.7152 21.4404 20.5565C21.4485 20.4771 21.4583 20.3961 21.468 20.3136C21.5346 19.7436 21.6287 19.1006 21.7521 18.3783H45.4819ZM41.5015 31.8953C41.5307 32.0112 41.5827 32.1207 41.6541 32.2175L41.7499 32.3493H35.8815H33.8719H29.0555L28.3136 31.6222L28.5214 30.4823L31.5635 27.4436L33.0066 26.002L33.4417 25.5686L37.6428 27.5722L39.7288 29.0201L40.9918 29.8964L41.2548 30.9252L41.5015 31.8953ZM7.3678 60.2914C5.64869 60.2914 4.07082 59.5198 3.03838 58.1767C2.00595 56.8336 1.6894 55.1364 2.16666 53.5218L11.4505 22.1981C12.1177 19.9484 14.2556 18.3783 16.65 18.3783H19.7765C19.7619 18.4672 19.7473 18.5545 19.7343 18.6418C19.7197 18.7291 19.7067 18.8149 19.6937 18.9006C19.6921 18.9022 19.6921 18.9038 19.6921 18.9054C19.6531 19.1578 19.6174 19.4039 19.585 19.6436C19.5736 19.7246 19.5639 19.804 19.5541 19.8833C19.5444 19.9627 19.5346 20.0405 19.5249 20.1167C19.5054 20.2802 19.4876 20.4374 19.4746 20.593C19.4616 20.7232 19.4502 20.8518 19.4405 20.9772C19.4291 21.128 19.4194 21.2741 19.4129 21.4186C19.4096 21.4868 19.4064 21.5535 19.4048 21.6202C19.3885 22.1171 19.4015 22.5728 19.4518 22.9903C19.4697 23.1443 19.4924 23.292 19.52 23.4348C19.5476 23.5777 19.5801 23.7158 19.619 23.8492C19.6564 23.9826 19.7002 24.1112 19.7489 24.235C19.7976 24.3588 19.8528 24.4795 19.9129 24.5938C19.9729 24.7097 20.0395 24.8208 20.1109 24.9272C20.184 25.0336 20.2619 25.1352 20.3463 25.2336C21.6304 26.726 23.9858 26.8371 27.4354 26.8371C28.1431 26.8371 28.7762 26.8736 29.3428 26.9387L26.9192 29.3598C26.7828 29.4964 26.6903 29.671 26.6562 29.8583L26.6334 29.979L26.4809 29.8298C26.3737 29.725 26.2438 29.6472 26.0994 29.5996L24.4566 29.0645C24.1335 28.9582 23.778 29.0264 23.5183 29.2408L19.5005 32.5748C19.1889 32.8335 19.0752 33.2543 19.2165 33.6305C19.3561 34.0052 19.7213 34.2545 20.1304 34.2545H27.0166H28.6529H32.3265C31.4661 34.7768 30.32 35.1118 28.9418 35.4785C26.1432 36.2231 22.6612 37.1487 22.5654 41.5321C22.4729 45.779 23.6952 48.1779 26.6513 49.5543C29.5327 50.8975 34.1137 51.2404 41.0518 51.3801C41.2499 51.3849 41.4463 51.3896 41.6395 51.3976C41.7872 51.4023 41.9333 51.4087 42.0778 51.4166C42.2336 51.423 42.3862 51.4325 42.5388 51.4436C42.5729 51.4452 42.607 51.4468 42.6395 51.45C42.7596 51.4579 42.8781 51.4658 42.9966 51.4754C43.0453 51.4801 43.094 51.4833 43.1411 51.4881C43.2547 51.4976 43.3667 51.5071 43.4787 51.5182C43.5144 51.5214 43.5501 51.5246 43.5842 51.5293C43.693 51.5389 43.8001 51.5516 43.9056 51.5643C43.9511 51.569 43.9966 51.5738 44.0404 51.5801C44.1313 51.5897 44.2222 51.6008 44.3115 51.6135C44.3862 51.6214 44.4608 51.6325 44.5339 51.6436C44.5696 51.6468 44.6037 51.6516 44.6394 51.6579C44.7482 51.6722 44.8553 51.6881 44.9608 51.7056C45.1118 51.7294 45.2595 51.7532 45.4056 51.7802C45.516 51.7992 45.6248 51.8199 45.7319 51.8405C45.9803 51.8881 46.2221 51.9389 46.4575 51.9945C46.576 52.0215 46.6913 52.0485 46.8065 52.0787C46.9007 52.1009 46.9932 52.1263 47.0841 52.1517C47.1718 52.1739 47.2578 52.1977 47.3422 52.2231C47.4185 52.2438 47.4932 52.266 47.5679 52.2882C47.6588 52.3152 47.7464 52.3422 47.8341 52.3708C47.9153 52.3962 47.9948 52.4216 48.0727 52.4486C48.1555 52.4756 48.2383 52.5041 48.3195 52.5343C48.399 52.5613 48.4769 52.5899 48.5549 52.62C48.6409 52.6502 48.7237 52.6835 48.8065 52.7153C48.8698 52.7407 48.9331 52.7661 48.9948 52.7915C49.2837 52.9106 49.5613 53.036 49.8259 53.1678C49.9818 53.244 50.1327 53.3233 50.2805 53.4059C50.3811 53.4599 50.4801 53.5154 50.5775 53.5742C50.6408 53.6107 50.7041 53.6488 50.7675 53.6885C50.86 53.7441 50.9525 53.8028 51.0418 53.8615C51.1165 53.9108 51.1895 53.96 51.2626 54.0108C51.3324 54.0584 51.4006 54.1076 51.4687 54.1553C51.4736 54.1584 51.4785 54.1616 51.4833 54.1664C51.5515 54.2172 51.6181 54.2664 51.6846 54.3172C51.7528 54.3696 51.8194 54.422 51.8859 54.476C51.9509 54.5283 52.0158 54.5823 52.0807 54.6363C52.3356 54.8522 52.5742 55.0761 52.795 55.3063C52.8372 55.3507 52.881 55.3968 52.9232 55.4412C52.9898 55.5127 53.0547 55.5841 53.1164 55.6556C53.1684 55.7143 53.2187 55.773 53.2674 55.8334C53.3177 55.8937 53.3664 55.954 53.4151 56.0144C53.4638 56.0747 53.5109 56.135 53.5563 56.1969C53.6018 56.2573 53.6472 56.3192 53.6911 56.3795C53.7365 56.4414 53.7803 56.5033 53.8226 56.5653C53.8664 56.6272 53.907 56.6891 53.9475 56.7526C53.9898 56.8145 54.0303 56.878 54.0693 56.9415C54.4086 57.4861 54.6894 58.0481 54.9232 58.6165C54.9524 58.6879 54.9816 58.7609 55.0092 58.8324C55.0384 58.9054 55.066 58.9769 55.092 59.0499C55.1456 59.1944 55.1975 59.3404 55.2446 59.4849C55.2689 59.5547 55.29 59.623 55.3128 59.6913C55.355 59.8246 55.3956 59.958 55.4329 60.0914C55.4508 60.1533 55.4686 60.2152 55.4848 60.2771C55.4865 60.2819 55.4881 60.2866 55.4897 60.2914H7.3678ZM26.2162 32.2668L26.2 32.3493H22.7845L24.3608 31.0411L25.265 31.3364L26.2162 32.2668ZM71.9616 58.1767C70.9292 59.5198 69.3513 60.2914 67.6322 60.2914H57.4978C57.4734 60.1961 57.4491 60.1009 57.4231 60.0072C57.3224 59.6325 57.2137 59.269 57.0936 58.9165C57.0643 58.8308 57.0351 58.7467 57.0059 58.6625C57.001 58.6514 56.9978 58.6419 56.9945 58.6308C56.9328 58.4609 56.8695 58.2926 56.803 58.1291C56.3955 57.113 55.9004 56.1953 55.3111 55.3682C55.2819 55.3269 55.2527 55.2856 55.2235 55.246C55.1537 55.1491 55.0823 55.0554 55.0092 54.9618C54.9589 54.8967 54.9086 54.8332 54.8582 54.7697C54.7673 54.6585 54.6748 54.549 54.5807 54.441C54.5417 54.3966 54.5027 54.3521 54.4638 54.3093C54.3647 54.1981 54.2625 54.0902 54.1602 53.9838C54.1099 53.933 54.0612 53.8822 54.0109 53.833C53.9459 53.7695 53.881 53.706 53.8161 53.644C53.7592 53.5917 53.7041 53.5377 53.6456 53.4869C53.5839 53.4297 53.5206 53.3741 53.4573 53.3186C53.394 53.263 53.3307 53.2074 53.2658 53.1535C50.4428 50.7863 46.4608 49.5829 41.0908 49.475C34.5877 49.3448 30.0441 49.0257 27.4889 47.8349C25.2715 46.8014 24.4387 45.0455 24.5134 41.5734C24.5751 38.7569 26.4305 38.1203 29.4532 37.317C29.7275 37.2439 30.0083 37.1693 30.2908 37.0899C30.4759 37.0391 30.6609 36.9852 30.846 36.9296C30.971 36.8915 31.0943 36.8518 31.2193 36.8105C31.3849 36.7581 31.5489 36.701 31.7128 36.6406C31.807 36.6073 31.8995 36.5708 31.9937 36.5343C32.354 36.393 32.7079 36.2342 33.0456 36.0501C33.1073 36.0167 33.169 35.9834 33.229 35.9469C33.5099 35.7849 33.7777 35.6055 34.0293 35.4039C34.0553 35.3833 34.0813 35.3626 34.1056 35.342C34.1316 35.3213 34.1576 35.2991 34.1819 35.2769C34.2241 35.242 34.2647 35.2054 34.3053 35.1673C34.3378 35.1388 34.3702 35.1086 34.4027 35.0768C34.4416 35.0419 34.479 35.0038 34.5163 34.9657C34.5488 34.9324 34.5813 34.8974 34.6137 34.8625C34.69 34.7815 34.7631 34.6974 34.8329 34.6101C34.8588 34.5783 34.8832 34.5482 34.9075 34.5164C34.94 34.4751 34.9692 34.4339 35.0001 34.3926C35.0293 34.3529 35.0569 34.3116 35.0861 34.2703C35.0894 34.2656 35.0926 34.2592 35.0958 34.2545H43.6427C44.0079 34.2545 44.3423 34.0544 44.5095 33.7385C44.6767 33.421 44.6475 33.0383 44.4349 32.7478L43.3472 31.257L43.2628 30.9252H50.235L47.9607 32.2445L47.9591 32.2461C47.9591 32.2461 47.9575 32.2461 47.9575 32.2477C47.8455 32.3128 47.7513 32.3985 47.6766 32.497C47.6734 32.5001 47.6718 32.5049 47.6685 32.5097C47.6474 32.5382 47.6263 32.5684 47.6085 32.6002C47.6003 32.6144 47.5938 32.6303 47.5857 32.6446C47.5744 32.6668 47.563 32.6875 47.5549 32.7097C47.5468 32.7319 47.5403 32.7542 47.5322 32.7764C47.5273 32.7923 47.5208 32.8097 47.5159 32.8256C47.5094 32.851 47.5046 32.8764 47.5013 32.9018C47.4981 32.9177 47.4948 32.932 47.4932 32.9478C47.49 32.9733 47.49 32.9971 47.4883 33.0225C47.4883 33.0368 47.4851 33.051 47.4851 33.0653V34.8578L44.7774 36.1818C44.7757 36.1818 44.7758 36.1834 44.7741 36.1834C44.7368 36.2025 44.7011 36.2231 44.6654 36.2453C44.6605 36.2485 44.6556 36.2517 44.6508 36.2564C44.6215 36.2771 44.5939 36.2993 44.5663 36.3215C44.5615 36.3263 44.5566 36.3311 44.5501 36.3342C44.5209 36.3612 44.4917 36.3898 44.4657 36.4216C44.4641 36.4247 44.4624 36.4263 44.4592 36.4295C44.4365 36.4565 44.4154 36.4851 44.3959 36.5152C44.3894 36.5248 44.3829 36.5359 44.3764 36.5454C44.3699 36.5549 44.3634 36.5644 44.3586 36.574L42.5729 39.7492C42.5567 39.7794 42.5404 39.8095 42.5274 39.8413C42.5242 39.8476 42.5226 39.8524 42.521 39.8588C42.5096 39.8889 42.4982 39.9191 42.4901 39.9492C42.4869 39.9588 42.4852 39.9683 42.482 39.9778C42.4739 40.008 42.469 40.0382 42.4641 40.0667C42.4625 40.0747 42.4609 40.0826 42.4609 40.0905C42.456 40.1286 42.4528 40.1683 42.4528 40.2064V40.208V43.0657C42.4528 43.4023 42.6346 43.7135 42.93 43.885L48.1247 46.9014H48.1263C48.1263 46.9014 48.1263 46.9014 48.1279 46.9014C48.1442 46.911 48.1604 46.9173 48.1766 46.9252C48.1993 46.9364 48.2221 46.9491 48.2448 46.9586C48.2594 46.9649 48.274 46.9681 48.2886 46.9729C48.3146 46.9824 48.3406 46.9919 48.3682 46.9999C48.386 47.0046 48.4023 47.0062 48.4201 47.0094C48.4445 47.0141 48.4688 47.0205 48.4948 47.0237C48.537 47.0284 48.5808 47.0316 48.623 47.0316C48.6636 47.0316 48.7058 47.0284 48.7464 47.0237C48.761 47.0221 48.7756 47.0173 48.7902 47.0157C48.8162 47.011 48.8422 47.0078 48.8682 47.0014C48.886 46.9967 48.9039 46.9903 48.9217 46.984C48.9428 46.9776 48.9656 46.9713 48.9867 46.9633C49.0061 46.9554 49.024 46.9459 49.0419 46.9379C49.0597 46.93 49.0776 46.9221 49.0954 46.9141L49.1068 46.9078L49.3178 46.7951C49.472 47.038 49.6766 47.2412 49.9266 47.3936C50.2285 47.5778 50.571 47.6698 50.9282 47.6698C51.1554 47.6698 51.3892 47.6317 51.6213 47.5555C52.7658 47.1856 53.6213 45.987 53.6115 44.7677C53.6115 44.7661 53.6115 44.7645 53.6115 44.7645C53.6099 44.6708 53.6034 44.5803 53.592 44.4914L53.6083 44.4819L54.9215 45.2979C54.9264 45.3011 54.9313 45.3027 54.9362 45.3059C54.941 45.309 54.9459 45.3122 54.9508 45.3154C54.9686 45.3249 54.9865 45.3329 55.0027 45.3408C55.0206 45.3487 55.0368 45.3583 55.0563 45.3662C55.0806 45.3757 55.105 45.3837 55.1293 45.3932C55.1472 45.3995 55.1634 45.4059 55.1813 45.4107C55.2089 45.4186 55.2381 45.4234 55.2657 45.4281C55.2803 45.4313 55.2965 45.4345 55.3111 45.4376C55.355 45.444 55.3988 45.4472 55.4426 45.4472C55.4832 45.4472 55.5238 45.444 55.5644 45.4392C55.579 45.4376 55.5952 45.4329 55.6098 45.4313C55.6342 45.4265 55.6602 45.4234 55.6845 45.417C55.7007 45.4122 55.7186 45.4059 55.7348 45.4011C55.7576 45.3948 55.7803 45.3884 55.8014 45.3789C55.816 45.3726 55.8306 45.3646 55.8452 45.3583C55.8679 45.3487 55.889 45.3392 55.9118 45.3281C55.9134 45.3281 55.915 45.3265 55.915 45.3249C55.9166 45.3249 55.9166 45.3233 55.9183 45.3233L59.2201 43.5182C59.3467 43.6659 59.4961 43.796 59.6665 43.8992C59.9685 44.0834 60.311 44.1755 60.6681 44.1755C60.8954 44.1755 61.1292 44.1374 61.3613 44.0612C62.5057 43.6913 63.3612 42.4926 63.3515 41.2733C63.3515 41.2717 63.3515 41.2701 63.3515 41.2701C63.3515 41.267 63.3515 41.2638 63.3515 41.259L65.4975 40.0842C65.806 39.9159 65.9959 39.5984 65.9959 39.2523V31.3142C65.9959 31.2666 65.991 31.2205 65.9845 31.1761C65.9813 31.1443 65.9748 31.1141 65.9667 31.084C65.9667 31.0808 65.965 31.0792 65.9634 31.076C65.9504 31.0284 65.9342 30.9808 65.9147 30.9363C65.9131 30.9316 65.9115 30.9268 65.9098 30.9236H66.142L72.8398 53.5202C73.3106 55.1364 72.994 56.8336 71.9616 58.1767Z" fill="#999999"/>
<path d="M54.9392 7.46282C54.9392 4.97502 52.8695 2.94922 50.3241 2.94922C47.7787 2.94922 45.709 4.97502 45.709 7.46282C45.709 9.9522 47.7787 11.978 50.3241 11.978C52.8695 11.978 54.9392 9.9522 54.9392 7.46282ZM47.657 7.46282C47.657 6.02444 48.8534 4.85436 50.3241 4.85436C51.7948 4.85436 52.9912 6.02444 52.9912 7.46282C52.9912 8.90279 51.7948 10.0729 50.3241 10.0729C48.8534 10.0729 47.657 8.90279 47.657 7.46282Z" fill="#999999"/>
<path d="M23.7887 52.6369C23.6101 52.3606 23.3001 52.1923 22.9657 52.1923H20.3781L18.3911 50.2491C18.383 50.2412 18.3749 50.2332 18.3668 50.2269L14.7776 46.9516C14.4724 46.6738 14.0195 46.615 13.651 46.8087L7.43042 50.084C7.18854 50.211 7.01322 50.4317 6.94667 50.692L5.81034 55.1374C5.73729 55.4216 5.80385 55.7232 5.98728 55.955C6.17234 56.1868 6.4548 56.3217 6.75512 56.3217H24.3974C24.753 56.3217 25.0792 56.1328 25.2497 55.8296C25.4201 55.5248 25.4104 55.1548 25.2205 54.8611L23.7887 52.6369ZM8.00508 54.4166L8.73395 51.5637L13.9594 48.8123L17.0243 51.6097L19.2872 53.8197C19.4706 53.9991 19.7174 54.0991 19.9755 54.0991H22.4283L22.6329 54.4166H8.00508Z" fill="#999999"/>
</svg>
