<svg width="13" height="13" viewBox="0 0 13 13" fill="none" xmlns="http://www.w3.org/2000/svg">
<path fill-rule="evenodd" clip-rule="evenodd" d="M6.5 13C10.0899 13 13 10.0899 13 6.5C13 2.91015 10.0899 0 6.5 0C2.91015 0 0 2.91015 0 6.5C0 10.0899 2.91015 13 6.5 13ZM6.5 12C9.53757 12 12 9.53757 12 6.5C12 3.46243 9.53757 1 6.5 1C3.46243 1 1 3.46243 1 6.5C1 9.53757 3.46243 12 6.5 12Z" fill="#565656"/>
<line x1="6.5" y1="2.5" x2="6.5" y2="6.5" stroke="#565656" stroke-linecap="round" stroke-linejoin="round"/>
<line x1="6.5" y1="6.5" x2="10.5" y2="6.5" stroke="#565656" stroke-linecap="round" stroke-linejoin="round"/>
</svg>
