<svg width="307" height="113" viewBox="0 0 307 113" fill="none" xmlns="http://www.w3.org/2000/svg">
<g clip-path="url(#clip0)">
<path d="M290.08 78.5894C290.08 78.5894 289.413 93.9817 246.52 106.34C203.628 118.698 142.406 109.152 111.758 111.372C81.1097 113.592 2.15196 116.996 0.816213 95.1657C-0.519537 73.3353 23.9692 53.725 50.5358 47.5829C77.1024 41.4407 172.386 20.7204 192.125 24.6424C211.865 28.5645 280.433 35.9646 296.908 42.5508C310.414 47.9529 312.491 66.0092 290.08 78.5894Z" fill="#B3B3B3"/>
<path d="M289.338 69.7093C289.338 69.7093 288.67 85.1015 245.778 97.4598C202.886 109.818 141.664 100.272 111.016 102.492C80.3676 104.712 1.4099 108.116 0.0741478 86.2856C-1.2616 64.4552 23.2272 44.8448 49.7937 38.7027C76.3603 32.5606 171.644 11.8402 191.383 15.7623C211.123 19.6844 279.691 27.0845 296.166 33.6706C309.671 39.0727 311.749 57.129 289.338 69.7093Z" fill="#E2E2E2"/>
<path d="M251.863 38.4807L259.21 12.0623L266.26 38.6287L251.863 38.4807Z" fill="#727272"/>
<path d="M256.019 23.5323H262.252L261.436 20.4983H256.835L256.019 23.5323Z" fill="#B3B3B3"/>
<path d="M253.941 31.0066H264.256L263.291 27.5286H254.906L253.941 31.0066Z" fill="#B3B3B3"/>
<path d="M260.397 16.5023L259.21 12.0623L257.948 16.5023H260.397Z" fill="#B3B3B3"/>
<path d="M265.295 35.0027H252.828L251.863 38.6288H266.26L265.295 35.0027Z" fill="#B3B3B3"/>
<path d="M247.429 38.6105V41.4226H270.804V38.6105H247.429Z" fill="#727272"/>
<path d="M138.028 30.7846C138.028 30.7846 168.453 13.7643 176.171 7.10417C183.888 0.444054 186.782 -1.40598 192.125 1.03606C197.468 3.47811 214.833 21.6824 217.727 23.5325C220.622 25.3825 248.079 39.9608 250.527 39.9608C252.976 39.9608 207.116 44.8448 196.504 42.4028C190.196 40.9968 179.139 42.9208 172.609 42.9948C167.934 43.0688 167.563 43.5868 163.036 42.4028C161.626 42.0328 150.049 39.9608 138.028 38.1847C138.77 37.5927 147.675 32.7086 147.675 32.7086C147.675 32.7086 133.204 34.4847 138.028 30.7846Z" fill="#898989"/>
<path d="M94.0221 56.241C93.5768 56.907 129.123 43.0687 145.968 22.2004C148.343 19.2403 159.4 11.6922 169.715 18.5003C179.51 25.0124 189.231 41.1447 195.688 42.9207C195.688 42.9207 166.746 51.0609 144.484 51.0609C122.221 51.0609 94.0221 56.241 94.0221 56.241Z" fill="#A3A3A3"/>
<path d="M206.819 5.8462C206.819 5.8462 197.914 13.3203 189.009 19.2404C181.514 24.1985 165.262 35.5207 157.841 37.7408C150.42 39.9608 132.61 51.061 134.095 51.801C134.095 51.801 163.778 55.5011 171.199 56.2411C178.62 56.9811 210.529 56.2411 212.755 56.2411C214.982 56.2411 228.933 55.3531 241.697 56.2411C255.5 57.2031 284.738 52.541 284.738 52.541C284.738 52.541 250.082 37.6668 233.979 21.8305C228.339 16.2804 223.59 15.9104 221.512 13.7643C212.755 4.44017 209.787 5.10618 206.819 5.8462Z" fill="#C6C6C6"/>
<path d="M132.165 73.0393L145.597 24.4944L158.583 73.2613L132.165 73.0393Z" fill="#727272"/>
<path d="M139.734 45.5108H151.163L149.678 39.9607H141.293L139.734 45.5108Z" fill="#B3B3B3"/>
<path d="M135.95 59.201H154.798L153.166 52.9109H137.731L135.95 59.201Z" fill="#B3B3B3"/>
<path d="M147.749 32.5606L145.597 24.4204L143.296 32.5606H147.749Z" fill="#B3B3B3"/>
<path d="M156.802 66.6011H133.946L132.091 73.2612H158.583L156.802 66.6011Z" fill="#B3B3B3"/>
<path d="M123.962 73.2645V78.4446H167.003V73.2645H123.962Z" fill="#727272"/>
<path d="M201.179 57.8691L212.162 18.2043L222.773 58.0911L201.179 57.8691Z" fill="#727272"/>
<path d="M207.412 35.3727H216.688L215.501 30.8586H208.6L207.412 35.3727Z" fill="#B3B3B3"/>
<path d="M204.296 46.6208H219.731L218.321 41.4407H205.706L204.296 46.6208Z" fill="#B3B3B3"/>
<path d="M213.869 24.7905L212.162 18.2043L210.307 24.7905H213.869Z" fill="#B3B3B3"/>
<path d="M221.289 52.689H202.589L201.105 58.0911H222.774L221.289 52.689Z" fill="#B3B3B3"/>
<path d="M194.412 58.101V62.3191H229.587V58.101H194.412Z" fill="#727272"/>
<path d="M30.9448 34.4106H25.7502V83.9915H30.9448V34.4106Z" fill="#A3A3A3"/>
<path d="M94.0219 34.4106H88.8273V83.9915H94.0219V34.4106Z" fill="#A3A3A3"/>
<path d="M109.606 19.6104H10.9085V40.3307H109.606V19.6104Z" fill="#727272"/>
<path d="M17.9583 39.9606H12.0217L19.4425 19.9802H25.3792L17.9583 39.9606Z" fill="#B3B3B3"/>
<path d="M31.9838 39.9606H26.0471L33.468 19.9802H39.4046L31.9838 39.9606Z" fill="#B3B3B3"/>
<path d="M45.9351 39.9606H39.9984L47.4192 19.9802H53.3559L45.9351 39.9606Z" fill="#B3B3B3"/>
<path d="M59.886 39.9606H53.9493L61.3702 19.9802H67.3068L59.886 39.9606Z" fill="#B3B3B3"/>
<path d="M73.9115 39.9606H67.9749L75.3957 19.9802H81.3324L73.9115 39.9606Z" fill="#B3B3B3"/>
<path d="M87.8628 39.9606H81.9261L89.3469 19.9802H95.2836L87.8628 39.9606Z" fill="#B3B3B3"/>
<path d="M101.814 39.9606H95.8771L103.298 19.9802H109.235L101.814 39.9606Z" fill="#B3B3B3"/>
<path d="M15.3757 84.0059V89.186H40.6065V84.0059H15.3757Z" fill="#898989"/>
<path d="M78.4529 84.0059V89.186H103.684V84.0059H78.4529Z" fill="#898989"/>
</g>
<defs>
<clipPath id="clip0">
<rect width="307" height="113" fill="white"/>
</clipPath>
</defs>
</svg>
