<svg width="218" height="80" viewBox="0 0 218 80" fill="none" xmlns="http://www.w3.org/2000/svg">
<g clip-path="url(#clip0)">
<path d="M205.985 55.6384C205.985 55.6384 205.511 66.5356 175.053 75.2847C144.596 84.0339 101.122 77.2756 79.3589 78.8473C57.5958 80.419 1.52809 82.829 0.579573 67.3738C-0.36894 51.9187 17.0205 38.0352 35.8854 33.6868C54.7502 29.3385 122.411 14.6692 136.428 17.4458C150.445 20.2225 199.135 25.4616 210.833 30.1243C220.424 33.9488 221.899 46.732 205.985 55.6384Z" fill="#B3B3B3"/>
<path d="M205.458 49.3518C205.458 49.3518 204.984 60.2489 174.526 68.9981C144.069 77.7473 100.595 70.989 78.8319 72.5607C57.0688 74.1324 1.00111 76.5423 0.0525957 61.0872C-0.895918 45.632 16.4935 31.7486 35.3584 27.4002C54.2232 23.0518 121.884 8.38254 135.901 11.1592C149.918 13.9359 198.608 19.1749 210.306 23.8377C219.897 27.6622 221.372 40.4454 205.458 49.3518Z" fill="#E2E2E2"/>
<path d="M178.848 27.2429L184.064 8.53955L189.07 27.3477L178.848 27.2429Z" fill="#727272"/>
<path d="M181.798 16.66H186.225L185.645 14.512H182.378L181.798 16.66Z" fill="#B3B3B3"/>
<path d="M180.323 21.9514H187.648L186.963 19.489H181.008L180.323 21.9514Z" fill="#B3B3B3"/>
<path d="M184.907 11.683L184.064 8.53955L183.168 11.683H184.907Z" fill="#B3B3B3"/>
<path d="M188.385 24.7805H179.533L178.848 27.3476H189.07L188.385 24.7805Z" fill="#B3B3B3"/>
<path d="M175.698 27.3348V29.3257H192.297V27.3348H175.698Z" fill="#727272"/>
<path d="M98.0131 21.7943C98.0131 21.7943 119.618 9.74456 125.098 5.02943C130.579 0.314306 132.634 -0.995452 136.428 0.733428C140.222 2.46231 152.553 15.3503 154.608 16.6601C156.663 17.9698 176.16 28.2907 177.899 28.2907C179.638 28.2907 147.072 31.7485 139.537 30.0196C135.058 29.0242 127.206 30.3863 122.569 30.4387C119.249 30.4911 118.986 30.8579 115.771 30.0196C114.77 29.7577 106.55 28.2907 98.0131 27.0334C98.5401 26.6142 104.863 23.1565 104.863 23.1565C104.863 23.1565 94.5879 24.4138 98.0131 21.7943Z" fill="#898989"/>
<path d="M66.7648 39.8166C66.4487 40.2881 91.6897 30.4911 103.651 15.7171C105.338 13.6215 113.189 8.27766 120.514 13.0976C127.47 17.7079 134.373 29.129 138.957 30.3864C138.957 30.3864 118.406 36.1493 102.598 36.1493C86.789 36.1493 66.7648 39.8166 66.7648 39.8166Z" fill="#A3A3A3"/>
<path d="M146.862 4.13884C146.862 4.13884 140.538 9.43026 134.215 13.6215C128.892 17.1316 117.352 25.1474 112.083 26.7191C106.813 28.2908 94.1664 36.1493 95.2203 36.6732C95.2203 36.6732 116.298 39.2927 121.568 39.8166C126.837 40.3405 149.496 39.8166 151.077 39.8166C152.658 39.8166 162.565 39.188 171.628 39.8166C181.43 40.4977 202.192 37.1971 202.192 37.1971C202.192 37.1971 177.583 26.6667 166.148 15.4551C162.143 11.5259 158.771 11.2639 157.295 9.7446C151.077 3.14342 148.969 3.61493 146.862 4.13884Z" fill="#C6C6C6"/>
<path d="M93.8501 51.7094L103.388 17.3413L112.61 51.8665L93.8501 51.7094Z" fill="#727272"/>
<path d="M99.2251 32.22H107.34L106.286 28.2908H100.332L99.2251 32.22Z" fill="#B3B3B3"/>
<path d="M96.5375 41.9122H109.922L108.763 37.459H97.8022L96.5375 41.9122Z" fill="#B3B3B3"/>
<path d="M104.916 23.0518L103.388 17.2888L101.754 23.0518H104.916Z" fill="#B3B3B3"/>
<path d="M111.345 47.1514H95.1148L93.7974 51.8665H112.61L111.345 47.1514Z" fill="#B3B3B3"/>
<path d="M88.0255 51.8686V55.5359H118.589V51.8686H88.0255Z" fill="#727272"/>
<path d="M142.857 40.9692L150.656 12.8879L158.191 41.1263L142.857 40.9692Z" fill="#727272"/>
<path d="M147.283 25.0425H153.87L153.027 21.8467H148.126L147.283 25.0425Z" fill="#B3B3B3"/>
<path d="M145.07 33.0057H156.03L155.029 29.3384H146.071L145.07 33.0057Z" fill="#B3B3B3"/>
<path d="M151.868 17.5507L150.656 12.8879L149.338 17.5507H151.868Z" fill="#B3B3B3"/>
<path d="M157.137 37.3018H143.858L142.804 41.1263H158.191L157.137 37.3018Z" fill="#B3B3B3"/>
<path d="M138.052 41.1334V44.1196H163.029V41.1334H138.052Z" fill="#727272"/>
<path d="M21.9738 24.3616H18.2852V59.4631H21.9738V24.3616Z" fill="#A3A3A3"/>
<path d="M66.7647 24.3616H63.076V59.4631H66.7647V24.3616Z" fill="#A3A3A3"/>
<path d="M77.8307 13.8835H7.74609V28.5528H77.8307V13.8835Z" fill="#727272"/>
<path d="M12.7521 28.2906H8.5365L13.806 14.1453H18.0216L12.7521 28.2906Z" fill="#B3B3B3"/>
<path d="M22.7116 28.2906H18.496L23.7655 14.1453H27.9811L22.7116 28.2906Z" fill="#B3B3B3"/>
<path d="M32.6184 28.2906H28.4028L33.6723 14.1453H37.8879L32.6184 28.2906Z" fill="#B3B3B3"/>
<path d="M42.5249 28.2906H38.3093L43.5788 14.1453H47.7945L42.5249 28.2906Z" fill="#B3B3B3"/>
<path d="M52.4844 28.2906H48.2688L53.5383 14.1453H57.7539L52.4844 28.2906Z" fill="#B3B3B3"/>
<path d="M62.3912 28.2906H58.1755L63.4451 14.1453H67.6607L62.3912 28.2906Z" fill="#B3B3B3"/>
<path d="M72.2977 28.2906H68.0821L73.3516 14.1453H77.5672L72.2977 28.2906Z" fill="#B3B3B3"/>
<path d="M10.9182 59.4733V63.1406H28.8346V59.4733H10.9182Z" fill="#898989"/>
<path d="M55.7092 59.4733V63.1406H73.6256V59.4733H55.7092Z" fill="#898989"/>
</g>
<defs>
<clipPath id="clip0">
<rect width="218" height="80" fill="white"/>
</clipPath>
</defs>
</svg>
