<svg width="46" height="28" viewBox="0 0 46 28" fill="none" xmlns="http://www.w3.org/2000/svg">
<path d="M27.7998 6.04554C27.7998 6.04554 22.3998 -2.15446 16.2998 0.545536C11.3998 2.74554 9.7998 6.04554 9.7998 6.04554H27.7998Z" fill="#FFCD11"/>
<path d="M26.7998 6.04553C26.7998 6.04553 22.2998 0.645533 17.2998 2.44553C13.1998 3.94553 11.7998 6.04553 11.7998 6.04553H26.7998Z" fill="#FFCD11"/>
<path d="M33.7002 20.8455C33.7002 22.1455 34.8002 23.1455 36.1002 23.1455C37.4002 23.1455 38.5002 22.1455 38.5002 20.8455C38.5002 19.5455 37.4002 18.5455 36.1002 18.5455C34.8002 18.4455 33.7002 19.5455 33.7002 20.8455ZM34.6002 20.8455C34.6002 20.0455 35.3002 19.3455 36.1002 19.3455C36.9002 19.3455 37.6002 20.0455 37.6002 20.8455C37.6002 21.6455 36.9002 22.3455 36.1002 22.3455C35.2002 22.2455 34.6002 21.6455 34.6002 20.8455Z" fill="black"/>
<path d="M16.5002 20.8455C16.5002 19.5455 15.4002 18.5455 14.1002 18.5455C12.8002 18.5455 11.7002 19.5455 11.7002 20.8455C11.7002 22.1455 12.8002 23.1455 14.1002 23.1455C15.4002 23.1455 16.5002 22.0455 16.5002 20.8455ZM15.6002 20.8455C15.6002 21.6455 14.9002 22.3455 14.1002 22.3455C13.3002 22.3455 12.6002 21.6455 12.6002 20.8455C12.6002 20.0455 13.3002 19.3455 14.1002 19.3455C14.9002 19.3455 15.6002 19.9455 15.6002 20.8455Z" fill="black"/>
<path d="M20.2008 18.2455C19.1008 15.8455 16.7008 14.3455 14.0008 14.3455C10.3008 14.3455 7.30078 17.2455 7.30078 20.8455C7.30078 24.4455 10.3008 27.3455 14.0008 27.3455C17.7008 27.3455 20.7008 24.4455 20.7008 20.8455C20.7008 20.6455 20.7008 20.4455 20.7008 20.2455L20.6008 19.5455H29.4008L29.3008 20.2455C29.3008 20.4455 29.3008 20.6455 29.3008 20.8455C29.3008 24.4455 32.3008 27.3455 36.0008 27.3455C39.7008 27.3455 42.7008 24.4455 42.7008 20.8455C42.7008 17.2455 39.7008 14.3455 36.0008 14.3455C33.3008 14.3455 30.9008 15.8455 29.8008 18.2455L29.6008 18.6455H20.2008V18.2455ZM30.3008 20.8455C30.3008 17.7455 32.9008 15.2455 36.1008 15.2455C39.3008 15.2455 41.9008 17.7455 41.9008 20.8455C41.9008 23.9455 39.3008 26.4455 36.1008 26.4455C32.9008 26.4455 30.3008 23.9455 30.3008 20.8455ZM19.9008 20.8455C19.9008 23.9455 17.3008 26.4455 14.1008 26.4455C10.9008 26.4455 8.30078 23.9455 8.30078 20.8455C8.30078 17.7455 10.9008 15.2455 14.1008 15.2455C17.3008 15.1455 19.9008 17.7455 19.9008 20.8455Z" fill="black"/>
<path d="M31.6006 12.2455H44.9006V20.0455C44.9006 20.2455 45.1006 20.4455 45.3006 20.4455C45.5006 20.4455 45.7006 20.2455 45.7006 20.0455V11.8455C45.7006 11.6455 45.5006 11.4455 45.3006 11.4455H37.0006L38.4006 6.94552C38.4006 6.84552 38.4006 6.64552 38.3006 6.54552C38.2006 6.44552 38.1006 6.34552 37.9006 6.34552H31.5006C31.3006 6.34552 31.1006 6.54552 31.1006 6.74552V11.7455C31.2006 12.0455 31.4006 12.2455 31.6006 12.2455ZM32.0006 7.24552H37.4006L36.1006 11.4455H32.0006V7.24552Z" fill="black"/>
<path d="M7.20038 11.2455L26.2004 14.8455C26.4004 14.8455 26.6004 14.7455 26.7004 14.5455L29.8004 3.84553H42.2004C42.4004 3.84553 42.6004 3.64553 42.6004 3.44553C42.6004 3.24553 42.4004 3.04553 42.2004 3.04553H29.5004C29.3004 3.04553 29.1004 3.14553 29.1004 3.34553L28.4004 5.74553H9.00038C8.80038 5.74553 8.60039 5.84553 8.60039 6.04553L6.90039 10.7455C6.90039 10.8455 6.90039 10.9455 6.90039 11.1455C6.90039 11.1455 7.00038 11.2455 7.20038 11.2455ZM7.80038 10.4455L9.20038 6.54553H28.1004L25.9004 13.8455L7.80038 10.4455Z" fill="black"/>
<path d="M7.5 16.2456C7.3 16.6456 7.10001 17.0456 6.90001 17.5456L0.600006 17.2456C0.200006 17.2456 0 16.9456 0 16.5456C0 16.1456 0.299997 15.9456 0.699997 15.9456L7.3 16.2456C7.3 16.1456 7.4 16.2456 7.5 16.2456Z" fill="black"/>
<path d="M6.50038 18.8455C6.40038 19.2455 6.40038 19.7455 6.30038 20.2455L2.00038 20.0455C1.60038 20.0455 1.40039 19.7455 1.40039 19.3455C1.40039 18.9455 1.70039 18.7455 2.10039 18.7455L6.50038 18.8455Z" fill="black"/>
<path d="M6.2998 21.6456C6.2998 22.1456 6.39981 22.5456 6.59981 23.0456L4.39981 22.9456C3.99981 22.9456 3.7998 22.6456 3.7998 22.2456C3.7998 21.8456 4.0998 21.6456 4.4998 21.6456H6.2998Z" fill="black"/>
</svg>
