<svg width="55" height="26" viewBox="0 0 55 26" fill="none" xmlns="http://www.w3.org/2000/svg">
<path fill-rule="evenodd" clip-rule="evenodd" d="M40.2981 0.076891C40.3938 0.00530823 40.518 -0.0179324 40.6336 0.0140892L54.72 3.91524C54.8515 3.95166 54.9535 4.05434 54.9877 4.18482C55.022 4.31531 54.9834 4.45393 54.8863 4.5488L48.6437 10.6506C48.3841 10.9044 48.0714 11.0953 47.7262 11.2124C44.7864 12.2114 41.55 10.9807 40.0641 8.3301H31.7664L29.2961 10.7447C29.1455 10.8919 28.9026 10.8908 28.7534 10.7422C28.6043 10.5936 28.6054 10.3539 28.756 10.2067L31.3385 7.68245C31.4103 7.61222 31.5074 7.57282 31.6085 7.57282H40.2951C40.4399 7.57282 40.5723 7.65321 40.6376 7.78072C41.8932 10.2331 44.8198 11.3992 47.4763 10.4964L47.4766 10.4963C47.7135 10.416 47.9266 10.2856 48.1036 10.1126L53.8779 4.46857L40.9136 0.878185V4.64846L48.8112 5.97181C49.0201 6.00682 49.1607 6.20233 49.1253 6.40849C49.0898 6.61466 48.8916 6.75341 48.6827 6.7184L40.4657 5.34153C40.2812 5.31061 40.1462 5.15289 40.1462 4.96823V0.378644C40.1462 0.260142 40.2024 0.148474 40.2981 0.076891ZM17.2838 0.999803C17.3516 0.946776 17.4356 0.91792 17.5221 0.91792H23.6262C23.7937 0.91792 23.9418 1.02507 23.9922 1.18264L27.5138 12.1976C27.557 12.3329 27.52 12.4807 27.4179 12.5806L24.3658 15.5638C24.294 15.634 24.1969 15.6734 24.0958 15.6734H17.9917C17.8906 15.6734 17.7935 15.634 17.7217 15.5638L13.7318 11.6639C13.7308 11.663 13.7298 11.662 13.7288 11.661L12.1993 10.1659H5.27759L0.777222 16.4344L1.20781 21.8005H2.5825V17.1306C2.5825 17.0414 2.61441 16.9551 2.67259 16.8869L6.19419 12.7562C6.26709 12.6707 6.37456 12.6214 6.48782 12.6214H11.5354C11.7474 12.6214 11.9192 12.7909 11.9192 13C11.9192 13.2091 11.7474 13.3786 11.5354 13.3786H6.66645L3.34994 17.2687V22.1792C3.34994 22.3883 3.17815 22.5578 2.96622 22.5578H0.853267C0.65309 22.5578 0.486544 22.406 0.470744 22.2091L0.00119769 16.3573C-0.00589435 16.2689 0.0186707 16.1809 0.0706112 16.1086L4.76607 9.56841C4.83801 9.46821 4.95473 9.40865 5.07918 9.40865H12.3571C12.4583 9.40865 12.5553 9.44805 12.6272 9.51829L13.9874 10.8478L15.9646 8.72196V2.21448C15.9646 2.09884 16.0181 1.98954 16.11 1.91772L17.2838 0.999803ZM14.533 11.3811L18.1496 14.9162H23.9379L26.7115 12.2051L23.3449 1.6752H17.6558L16.732 2.39754V8.86937C16.732 8.96418 16.696 9.05554 16.631 9.1254L14.533 11.3811ZM38.9863 10.4621C39.1352 10.611 39.1336 10.8507 38.9828 10.9976L34.4485 15.4146C36.2048 16.3847 37.392 18.2271 37.392 20.3433C37.392 23.4708 34.7992 26 31.6085 26C28.4178 26 25.825 23.4708 25.825 20.3433C25.825 17.2159 28.4178 14.6867 31.6085 14.6867C32.3611 14.6867 33.0805 14.8274 33.7404 15.0835C33.7594 15.0372 33.7881 14.9938 33.8264 14.9565L38.4436 10.4587C38.5944 10.3118 38.8374 10.3133 38.9863 10.4621ZM10.2442 15.444C7.47046 15.444 5.22813 17.6409 5.22813 20.3433C5.22813 23.0458 7.47046 25.2427 10.2442 25.2427C13.0179 25.2427 15.2602 23.0458 15.2602 20.3433C15.2602 17.6409 13.0179 15.444 10.2442 15.444ZM4.46069 20.3433C4.46069 17.2159 7.05349 14.6867 10.2442 14.6867C13.4349 14.6867 16.0277 17.2159 16.0277 20.3433C16.0277 20.8473 15.9604 21.3357 15.8341 21.8005H22.2945L23.2425 20.8739V18.6567H18.2265C18.0145 18.6567 17.8427 18.4871 17.8427 18.278C17.8427 18.0689 18.0145 17.8994 18.2265 17.8994H23.6262C23.8382 17.8994 24.01 18.0689 24.01 18.278V21.0318C24.01 21.1328 23.969 21.2297 23.8963 21.3008L22.7224 22.4482C22.6506 22.5184 22.5535 22.5578 22.4524 22.5578H15.644C15.619 22.5578 15.5945 22.5554 15.5708 22.5509C14.691 24.5794 12.6355 26 10.2442 26C7.05349 26 4.46069 23.4708 4.46069 20.3433ZM31.6085 15.444C28.8348 15.444 26.5925 17.6409 26.5925 20.3433C26.5925 23.0458 28.8348 25.2427 31.6085 25.2427C34.3823 25.2427 36.6246 23.0458 36.6246 20.3433C36.6246 17.6409 34.3823 15.444 31.6085 15.444ZM10.2442 18.3996C9.1405 18.3996 8.252 19.2732 8.252 20.3433C8.252 21.4134 9.1405 22.287 10.2442 22.287C11.3479 22.287 12.2364 21.4134 12.2364 20.3433C12.2364 19.2732 11.3479 18.3996 10.2442 18.3996ZM7.48456 20.3433C7.48456 18.8483 8.72352 17.6424 10.2442 17.6424C11.7648 17.6424 13.0038 18.8483 13.0038 20.3433C13.0038 21.8384 11.7648 23.0443 10.2442 23.0443C8.72352 23.0443 7.48456 21.8384 7.48456 20.3433ZM31.6085 18.3996C30.5048 18.3996 29.6163 19.2732 29.6163 20.3433C29.6163 21.4134 30.5048 22.287 31.6085 22.287C32.7122 22.287 33.6007 21.4134 33.6007 20.3433C33.6007 19.2732 32.7122 18.3996 31.6085 18.3996ZM28.8489 20.3433C28.8489 18.8483 30.0879 17.6424 31.6085 17.6424C33.1292 17.6424 34.3681 18.8483 34.3681 20.3433C34.3681 21.8384 33.1292 23.0443 31.6085 23.0443C30.0879 23.0443 28.8489 21.8384 28.8489 20.3433Z" fill="black"/>
</svg>