<svg width="27" height="22" viewBox="0 0 27 22" fill="none" xmlns="http://www.w3.org/2000/svg">
<path d="M18.6443 17.4955C18.6443 18.3965 19.4067 19.0896 20.3077 19.0896C21.2087 19.0896 21.9711 18.3965 21.9711 17.4955C21.9711 16.5945 21.2087 15.9014 20.3077 15.9014C19.4067 15.9014 18.6443 16.5945 18.6443 17.4955ZM19.2681 17.4955C19.2681 16.941 19.7532 16.4558 20.3077 16.4558C20.8622 16.4558 21.3474 16.941 21.3474 17.4955C21.3474 18.05 20.8622 18.5351 20.3077 18.5351C19.6839 18.5351 19.2681 18.05 19.2681 17.4955Z" fill="black"/>
<path d="M6.72304 17.4955C6.72304 16.5945 5.96063 15.9014 5.05961 15.9014C4.15859 15.9014 3.39618 16.5945 3.39618 17.4955C3.39618 18.3965 4.15859 19.0896 5.05961 19.0896C5.96063 19.0896 6.72304 18.3965 6.72304 17.4955ZM6.09925 17.4955C6.09925 18.05 5.61409 18.5351 5.05961 18.5351C4.50513 18.5351 4.01997 18.05 4.01997 17.4955C4.01997 16.941 4.50513 16.4558 5.05961 16.4558C5.61409 16.4558 6.09925 16.941 6.09925 17.4955Z" fill="black"/>
<path d="M9.2875 15.6923C8.52509 14.0289 6.86166 12.9893 4.9903 12.9893C2.42585 12.9893 0.346558 14.9992 0.346558 17.4944C0.346558 19.9895 2.42585 21.9995 4.9903 21.9995C7.55476 21.9995 9.63404 19.9895 9.63404 17.4944C9.63404 17.3558 9.63404 17.2171 9.63404 17.0785L9.56474 16.5934H15.664L15.5947 17.0785C15.5947 17.2171 15.5947 17.3558 15.5947 17.4944C15.5947 19.9895 17.674 21.9995 20.2384 21.9995C22.8029 21.9995 24.8822 19.9895 24.8822 17.4944C24.8822 14.9992 22.8029 12.9893 20.2384 12.9893C18.3671 12.9893 16.7036 14.0289 15.9412 15.6923V15.9696H9.42612L9.2875 15.6923ZM16.2878 17.4944C16.2878 15.3458 18.0898 13.613 20.3077 13.613C22.5256 13.613 24.3277 15.3458 24.3277 17.4944C24.3277 19.643 22.5256 21.3757 20.3077 21.3757C18.0898 21.3757 16.2878 19.643 16.2878 17.4944ZM9.07957 17.4944C9.07957 19.643 7.27752 21.3757 5.05961 21.3757C2.8417 21.3757 1.03965 19.643 1.03965 17.4944C1.03965 15.3458 2.8417 13.613 5.05961 13.613C7.27752 13.613 9.07957 15.3458 9.07957 17.4944Z" fill="black"/>
<path d="M17.1888 11.5346H26.4069V16.9407C26.4069 17.0793 26.5456 17.218 26.6842 17.218C26.8228 17.218 26.9614 17.0793 26.9614 16.9407V11.2573C26.9614 11.1187 26.8228 10.9801 26.6842 10.9801H20.9315L21.9018 7.86117C21.9018 7.79186 21.9018 7.65324 21.8325 7.58393C21.7632 7.51462 21.6939 7.44531 21.5553 7.44531H17.1195C16.9808 7.44531 16.8422 7.58393 16.8422 7.72255V11.188C16.9115 11.396 17.0502 11.5346 17.1888 11.5346ZM17.466 8.0691H21.2087L20.3077 10.9801H17.466V8.0691Z" fill="black"/>
<path d="M0.277238 10.8406L13.4461 13.3358C13.5847 13.3358 13.7233 13.2665 13.7926 13.1279L15.9412 5.78104H24.5356C24.6742 5.78104 24.8128 5.64242 24.8128 5.5038C24.8128 5.36518 24.6742 5.22656 24.5356 5.22656H15.7333C15.5947 5.22656 15.456 5.29587 15.456 5.43449L14.9709 7.09792H1.4555C1.31688 7.09792 1.17826 7.16723 1.17826 7.30585L0 10.4941C0 10.5634 0 10.6327 0 10.7713C0.0693096 10.7713 0.138619 10.8406 0.277238 10.8406ZM0.693096 10.3555L1.66343 7.6524H14.7629L13.2381 12.712L0.693096 10.3555Z" fill="black"/>
<path d="M2.07928 5.99029C2.07928 8.76268 4.29719 10.9806 7.00027 10.9806C9.70334 10.9806 11.9213 8.76268 11.9213 5.99029C11.9213 3.21791 9.70334 1 7.00027 1C4.29719 1 2.07928 3.21791 2.07928 5.99029Z" fill="#FFCD11" stroke="white" stroke-width="0.8268" stroke-linecap="round" stroke-linejoin="round"/>
<path d="M9.14888 4.46582L5.89133 7.51544L4.85168 6.40649" stroke="black" stroke-width="0.8268" stroke-linecap="round" stroke-linejoin="round"/>
</svg>


