<svg width="16" height="16" viewBox="0 0 16 16" fill="none" xmlns="http://www.w3.org/2000/svg">
<path d="M1.71 1H4C4.28 1 4.5 0.78 4.5 0.5C4.5 0.22 4.28 0 4 0H0.5C0.43 0 0.37 0.01 0.31 0.04C0.19 0.09 0.09 0.19 0.04 0.31C0.01 0.37 0 0.44 0 0.5V4C0 4.28 0.22 4.5 0.5 4.5C0.78 4.5 1 4.28 1 4V1.71L3.15 3.86C3.24 3.95 3.37 4 3.5 4C3.63 4 3.76 3.95 3.85 3.85C4.05 3.65 4.05 3.34 3.85 3.14L1.71 1Z" fill="black"/>
<path d="M15.96 0.31C15.91 0.19 15.81 0.09 15.69 0.04C15.63 0.01 15.57 0 15.5 0H12C11.72 0 11.5 0.22 11.5 0.5C11.5 0.78 11.72 1 12 1H14.29L12.14 3.15C11.94 3.35 11.94 3.66 12.14 3.86C12.24 3.95 12.37 4 12.5 4C12.63 4 12.76 3.95 12.85 3.85L15 1.71V4C15 4.28 15.22 4.5 15.5 4.5C15.78 4.5 16 4.28 16 4V0.5C16 0.44 15.99 0.37 15.96 0.31Z" fill="black"/>
<path d="M15.5 11.5C15.22 11.5 15 11.72 15 12V14.29L12.85 12.14C12.65 11.94 12.34 11.94 12.14 12.14C11.94 12.34 11.94 12.65 12.14 12.85L14.29 15H12C11.72 15 11.5 15.22 11.5 15.5C11.5 15.78 11.72 16 12 16H15.5C15.57 16 15.63 15.99 15.69 15.96C15.81 15.91 15.91 15.81 15.96 15.69C15.99 15.63 16 15.56 16 15.5V12C16 11.72 15.78 11.5 15.5 11.5Z" fill="black"/>
<path d="M3.15 12.15L1 14.29V12C1 11.72 0.78 11.5 0.5 11.5C0.22 11.5 0 11.72 0 12V15.5C0 15.56 0.01 15.63 0.04 15.69C0.09 15.81 0.19 15.91 0.31 15.96C0.37 15.99 0.43 16 0.5 16H4C4.28 16 4.5 15.78 4.5 15.5C4.5 15.22 4.28 15 4 15H1.71L3.86 12.85C4.06 12.65 4.06 12.34 3.86 12.14C3.66 11.94 3.34 11.95 3.15 12.15Z" fill="black"/>
<path d="M9 6C9.55 6 10 6.45 10 7V9C10 9.55 9.55 10 9 10H7C6.45 10 6 9.55 6 9V7C6 6.45 6.45 6 7 6H9ZM9 5H7C5.9 5 5 5.9 5 7V9C5 10.1 5.9 11 7 11H9C10.1 11 11 10.1 11 9V7C11 5.9 10.1 5 9 5Z" fill="black"/>
</svg>
