<svg width="20" height="18" viewBox="0 0 20 18" fill="none" xmlns="http://www.w3.org/2000/svg">
<path d="M14.3043 17.0004C16.8977 17.0004 19 14.8514 19 12.2004C19 9.54942 16.8977 7.40039 14.3043 7.40039C11.711 7.40039 9.6087 9.54942 9.6087 12.2004C9.6087 14.8514 11.711 17.0004 14.3043 17.0004Z" stroke="black" stroke-miterlimit="10" stroke-linejoin="round"/>
<path d="M16.2609 13.0002H14.3044V10.2002" stroke="black" stroke-miterlimit="10" stroke-linecap="round" stroke-linejoin="round"/>
<path d="M8.04348 12.2H2.17391C1.54783 12.2 1 11.64 1 11V2.2C1 1.56 1.54783 1 2.17391 1H16.2609C16.887 1 17.4348 1.56 17.4348 2.2V5.8" stroke="black" stroke-miterlimit="10" stroke-linecap="round" stroke-linejoin="round"/>
<path d="M17.0435 1.40039L9.21739 7.80039L1.3913 1.40039" stroke="black" stroke-miterlimit="10" stroke-linecap="round" stroke-linejoin="round"/>
</svg>
