<svg width="70" height="74" viewBox="0 0 70 74" fill="none" xmlns="http://www.w3.org/2000/svg">
<path d="M59.1891 73.8772H8.59227C3.85373 73.8772 0 69.4387 0 63.9812V10.0171C0 4.55955 3.85373 0.121094 8.59227 0.121094H17.4744C17.8325 0.121094 18.1698 0.315304 18.3839 0.644806C18.5979 0.974308 18.6662 1.40201 18.5657 1.79697L18.4445 2.27268C17.4498 8.91291 17.8477 13.515 19.6305 15.9546C20.7806 17.528 22.5388 18.2939 25.0095 18.2939C33.2399 18.2939 34.7404 23.0029 35.0038 25.028C35.0853 25.6564 35.0663 26.1321 35.0511 26.3416C35.0227 32.9185 30.7768 34.2475 27.3645 35.3167C23.8367 36.4209 21.6711 37.2959 21.5991 41.167C21.5119 45.9415 22.4858 48.355 25.072 49.7733C28.0542 51.4099 33.3573 51.8485 40.9473 52.0275C47.0159 52.1715 51.8397 54.6591 55.2899 59.4206C57.6715 62.7068 59.3577 67.0406 60.3031 72.3017C60.3732 72.6879 60.288 73.0872 60.072 73.3927C59.8541 73.7004 59.532 73.8772 59.1891 73.8772ZM8.59227 2.73965C5.10799 2.73965 2.27359 6.00412 2.27359 10.0171V63.9812C2.27359 67.9941 5.10799 71.2586 8.59227 71.2586H57.7643C55.4168 60.4418 49.748 54.8555 40.9019 54.646C32.8041 54.454 27.4593 53.9827 24.0943 52.1366C20.6442 50.2425 19.2194 46.9453 19.3255 41.1103C19.4373 35.0854 23.5013 33.8132 26.7677 32.7898C30.4945 31.6224 32.7776 30.684 32.7776 26.274C32.7776 26.2172 32.7814 26.1627 32.787 26.1059C32.787 26.1059 32.8098 25.8266 32.7567 25.4142C32.5388 23.734 31.241 20.9125 25.0095 20.9125C21.8719 20.9125 19.4771 19.8127 17.8912 17.6414C15.72 14.6672 15.1231 9.78576 16.0743 2.73965H8.59227Z" fill="#999999"/>
<path d="M68.8628 26.5315H33.8799C33.3172 26.5315 32.8397 26.0579 32.7564 25.4164C32.5366 23.734 31.2406 20.9125 25.0091 20.9125C21.8715 20.9125 19.4767 19.8127 17.8909 17.6414C15.6192 14.5297 15.0716 9.33188 16.216 1.75115C16.2236 1.70314 16.233 1.65513 16.2444 1.60931L16.3827 1.06378C16.5248 0.505149 16.9682 0.121094 17.474 0.121094H61.4055C66.144 0.121094 69.9977 4.55955 69.9977 10.0171V25.2222C69.9996 25.9445 69.49 26.5315 68.8628 26.5315ZM34.7704 23.9129H67.726V10.0171C67.726 6.00413 64.8916 2.73965 61.4074 2.73965H18.3759C17.4684 9.12894 17.8909 13.5718 19.6302 15.9547C20.7802 17.528 22.5385 18.2939 25.0091 18.2939C31.9568 18.2939 34.1091 21.6478 34.7704 23.9129Z" fill="#999999"/>
<path d="M61.4061 73.8784H59.1893C58.6513 73.8784 58.1852 73.442 58.0753 72.8353C55.9457 60.9863 50.167 54.8676 40.9002 54.6472C32.8024 54.4552 27.4576 53.9839 24.0927 52.1378C20.6425 50.2437 19.2178 46.9465 19.3239 41.1115C19.4356 35.0866 23.4997 33.8144 26.7661 32.791C30.4929 31.6235 32.7759 30.6852 32.7759 26.2751C32.7759 26.2184 32.7797 26.1638 32.7854 26.1071C32.7854 26.1071 32.8081 25.8278 32.7551 25.4154C32.7058 25.0379 32.8025 24.656 33.0184 24.3679C33.2344 24.0799 33.5489 23.9141 33.8786 23.9141H68.8597C69.4868 23.9141 69.9965 24.5011 69.9965 25.2233V63.9824C70.0003 69.4399 66.1446 73.8784 61.4061 73.8784ZM60.1026 71.2598H61.4061C64.8904 71.2598 67.7248 67.9954 67.7248 63.9824V26.5326H35.0495C34.9396 32.9459 30.7449 34.2596 27.3648 35.3179C23.8369 36.4221 21.6713 37.2971 21.5993 41.1682C21.5122 45.9427 22.486 48.3561 25.0722 49.7745C28.0544 51.4111 33.3576 51.8497 40.9476 52.0287C47.0162 52.1727 51.84 54.6603 55.2901 59.4217C57.5107 62.4898 59.1287 66.4679 60.1026 71.2598Z" fill="#999999"/>
</svg>
