<svg width="46" height="48" viewBox="0 0 46 48" fill="none" xmlns="http://www.w3.org/2000/svg">
<path d="M38.5199 48H5.59179C2.50798 48 0 45.1115 0 41.5598V6.44024C0 2.88852 2.50798 0 5.59179 0H11.3722C11.6053 0 11.8248 0.126391 11.9641 0.340828C12.1034 0.555266 12.1478 0.833609 12.0825 1.09065L12.0036 1.40024C11.3562 5.72166 11.6151 8.71669 12.7754 10.3044C13.5239 11.3283 14.6681 11.8267 16.276 11.8267C21.6323 11.8267 22.6089 14.8914 22.7802 16.2092C22.8333 16.6182 22.8209 16.9278 22.8111 17.0641C22.7926 21.3444 20.0294 22.2092 17.8087 22.9051C15.5128 23.6237 14.1034 24.1931 14.0566 26.7124C13.9998 29.8196 14.6336 31.3903 16.3167 32.3134C18.2575 33.3785 21.7087 33.6639 26.6483 33.7804C30.5977 33.8741 33.737 35.493 35.9823 38.5917C37.5322 40.7304 38.6296 43.5508 39.2449 46.9747C39.2905 47.226 39.235 47.4859 39.0945 47.6847C38.9527 47.885 38.7431 48 38.5199 48ZM5.59179 1.70414C3.32425 1.70414 1.47964 3.82864 1.47964 6.44024V41.5598C1.47964 44.1714 3.32425 46.2959 5.59179 46.2959H37.5926C36.0649 39.2563 32.3757 35.6208 26.6187 35.4845C21.3487 35.3595 17.8703 35.0528 15.6805 33.8514C13.4351 32.6187 12.5079 30.4729 12.5769 26.6755C12.6497 22.7546 15.2945 21.9266 17.4203 21.2606C19.8456 20.5008 21.3314 19.8902 21.3314 17.0201C21.3314 16.9832 21.3339 16.9477 21.3376 16.9108C21.3376 16.9108 21.3524 16.729 21.3179 16.4606C21.1761 15.3671 20.3314 13.5309 16.276 13.5309C14.2341 13.5309 12.6756 12.8151 11.6435 11.4021C10.2305 9.46651 9.84205 6.2897 10.461 1.70414H5.59179Z" fill="#999999"/>
<path d="M44.815 17.1877H22.0483C21.6821 17.1877 21.3714 16.8795 21.3171 16.462C21.1741 15.3671 20.3307 13.5309 16.2753 13.5309C14.2334 13.5309 12.6748 12.8152 11.6428 11.4021C10.1644 9.37705 9.80802 5.99432 10.5528 1.06083C10.5577 1.02959 10.5639 0.998344 10.5713 0.968521L10.6613 0.613492C10.7538 0.249941 11.0423 0 11.3715 0H39.9618C43.0456 0 45.5536 2.88852 45.5536 6.44024V16.3356C45.5548 16.8057 45.2231 17.1877 44.815 17.1877ZM22.6278 15.4836H44.0752V6.44024C44.0752 3.82864 42.2306 1.70414 39.963 1.70414H11.9584C11.3678 5.86225 11.6428 8.75362 12.7747 10.3044C13.5231 11.3283 14.6674 11.8268 16.2753 11.8268C20.7968 11.8268 22.1975 14.0095 22.6278 15.4836Z" fill="#999999"/>
<path d="M39.9627 48.0008H38.5201C38.1699 48.0008 37.8665 47.7168 37.795 47.322C36.4091 39.6108 32.6484 35.6288 26.6176 35.4853C21.3476 35.3604 17.8692 35.0536 15.6794 33.8522C13.434 32.6195 12.5068 30.4737 12.5758 26.6763C12.6486 22.7554 15.2934 21.9275 17.4192 21.2614C19.8446 20.5017 21.3304 19.891 21.3304 17.0209C21.3304 16.984 21.3328 16.9485 21.3365 16.9116C21.3365 16.9116 21.3513 16.7298 21.3168 16.4614C21.2847 16.2157 21.3476 15.9672 21.4882 15.7798C21.6288 15.5923 21.8334 15.4844 22.048 15.4844H44.8134C45.2216 15.4844 45.5533 15.8664 45.5533 16.3364V41.5606C45.5557 45.1123 43.0465 48.0008 39.9627 48.0008ZM39.1144 46.2967H39.9627C42.2302 46.2967 44.0749 44.1722 44.0749 41.5606V17.1885H22.81C22.7385 21.3622 20.0086 22.2172 17.8088 22.9059C15.5129 23.6245 14.1036 24.194 14.0567 26.7133C14 29.8205 14.6338 31.3911 16.3169 32.3142C18.2577 33.3793 21.7089 33.6647 26.6484 33.7812C30.5978 33.8749 33.7371 35.4939 35.9825 38.5926C37.4276 40.5892 38.4806 43.1781 39.1144 46.2967Z" fill="#999999"/>
</svg>
