<svg width="39" height="25" viewBox="0 0 39 25" fill="none" xmlns="http://www.w3.org/2000/svg">
<path d="M9.6998 15.5C8.3998 15.5 7.2998 16.5 7.2998 17.8C7.2998 19.1 8.3998 20.1 9.6998 20.1C10.9998 20.1 12.0998 19.1 12.0998 17.8C12.0998 16.6 10.9998 15.5 9.6998 15.5ZM9.6998 19.3C8.8998 19.3 8.1998 18.6 8.1998 17.8C8.1998 17 8.8998 16.3 9.6998 16.3C10.4998 16.3 11.1998 17 11.1998 17.8C11.1998 18.7 10.5998 19.3 9.6998 19.3Z" fill="black"/>
<path d="M31.7999 20.2C33.0999 20.2 34.1999 19.2 34.1999 17.9C34.1999 16.6 33.0999 15.6 31.7999 15.6C30.4999 15.6 29.3999 16.6 29.3999 17.9C29.2999 19.1 30.3999 20.2 31.7999 20.2ZM31.7999 16.4C32.5999 16.4 33.2999 17.1 33.2999 17.9C33.2999 18.7 32.5999 19.4 31.7999 19.4C30.9999 19.4 30.2999 18.7 30.2999 17.9C30.1999 17 30.8999 16.4 31.7999 16.4Z" fill="black"/>
<path d="M25.4 15.7H16L15.8 15.3C14.7 12.9 12.3 11.4 9.6 11.4C6 11.4 3 14.3 3 17.9C3 21.5 6 24.4 9.7 24.4C13.4 24.4 16.4 21.5 16.4 17.9C16.4 17.7 16.4 17.5 16.4 17.3L16.3 16.6H25.1L25 17.3C25 17.5 25 17.7 25 17.9C25 21.5 28 24.4 31.7 24.4C35.4 24.4 38.4 21.5 38.4 17.9C38.4 14.3 35.4 11.4 31.7 11.4C29 11.4 26.6 12.9 25.5 15.3L25.4 15.7ZM9.7 23.5C6.5 23.5 3.9 21 3.9 17.9C3.9 14.8 6.5 12.3 9.7 12.3C12.9 12.3 15.5 14.8 15.5 17.9C15.5 21 12.9 23.5 9.7 23.5ZM31.8 12.2C35 12.2 37.6 14.7 37.6 17.8C37.6 20.9 35 23.4 31.8 23.4C28.6 23.4 26 20.9 26 17.8C25.9 14.8 28.5 12.2 31.8 12.2Z" fill="black"/>
<path d="M14.6 8.9V3.9C14.6 3.7 14.4 3.5 14.2 3.5H7.8C7.7 3.5 7.5 3.6 7.4 3.7C7.3 3.8 7.3 3.9 7.3 4.1L8.7 8.6H0.4C0.2 8.4 0 8.6 0 8.9V17.1C0 17.3 0.2 17.5 0.4 17.5C0.6 17.5 0.8 17.3 0.8 17.1V9.3H14.1C14.4 9.3 14.6 9.1 14.6 8.9ZM13.8 8.4H9.7L8.4 4.2H13.8V8.4Z" fill="black"/>
<path d="M38.9002 8.1C39.0002 8 39.0002 7.9 38.9002 7.7L37.2002 3C37.1002 2.8 37.0002 2.7 36.8002 2.7H17.5002L16.8002 0.3C16.7002 0.0999997 16.6002 0 16.4002 0H3.6002C3.4002 0 3.2002 0.2 3.2002 0.4C3.2002 0.6 3.4002 0.8 3.6002 0.8H16.0002L19.2002 11.6C19.3002 11.8 19.5002 11.9 19.7002 11.9L38.7002 8.3C38.8002 8.3 38.9002 8.2 38.9002 8.1ZM19.9002 11L17.7002 3.6H36.6002L38.0002 7.5L19.9002 11Z" fill="black"/>
</svg>

