<svg width="50" height="28" viewBox="0 0 50 28" fill="none" xmlns="http://www.w3.org/2000/svg">
<path d="M13.0044 22.9446C14.0507 22.0477 14.2002 21.0014 14.2002 20.0298V15.9939H8.59487V21.4498C8.59487 22.1972 7.99696 22.8698 7.17485 22.8698C6.35273 22.8698 5.82956 22.2719 5.82956 21.4498V5.97904C5.82956 5.23166 6.42747 4.55902 7.17485 4.55902C7.92223 4.55902 8.59487 5.15692 8.59487 5.97904V11.5096H14.2002V5.75482C14.2002 2.61583 12.1076 0 7.10011 0C1.94319 0 0 2.61583 0 5.75482V21.8982C0 25.0372 2.46635 27.4288 5.68009 27.3541H7.39906L13.0044 22.9446Z" fill="white"/>
<path d="M35.2021 23.5427V5.7551H31.3157V0.523438H45.3665V5.7551H41.4054V27.4291H39.7611L35.2021 23.5427Z" fill="white"/>
<path d="M37.6672 27.4271L23.9902 15.9922L9.78998 27.4271H37.6672Z" fill="#FFCD11"/>
<path d="M27.8776 0.523438H20.0301L15.4711 21.0016L23.9913 14.2005L32.8851 21.5995L27.8776 0.523438ZM22.4965 12.8552L23.9913 5.08245L25.486 12.8552H22.4965Z" fill="white"/>
<path d="M50.0001 1.86976C50.0001 2.69188 49.3275 3.36452 48.5054 3.36452C47.6833 3.36452 47.0106 2.69188 47.0106 1.86976C47.0106 1.04764 47.6833 0.375 48.5054 0.375C49.4022 0.375 50.0001 1.04764 50.0001 1.86976ZM49.7759 1.86976C49.7759 1.19712 49.2528 0.673952 48.5801 0.673952C47.9075 0.673952 47.3843 1.19712 47.3843 1.86976C47.3843 2.5424 47.9075 3.06557 48.5801 3.06557C49.178 3.06557 49.7759 2.5424 49.7759 1.86976ZM48.3559 2.76662H47.9822V1.04764H48.7296C49.0285 1.04764 49.178 1.19712 49.178 1.49607C49.178 1.72028 49.1033 1.86976 48.8043 1.9445C48.8791 1.9445 49.178 1.9445 49.178 2.24345C49.178 2.31819 49.178 2.69188 49.2528 2.76662H48.8791C48.8043 2.69188 48.8043 2.5424 48.8043 2.46766C48.8043 2.24345 48.8043 2.09397 48.5054 2.09397H48.4306V2.76662H48.3559ZM48.3559 1.79502H48.5054C48.6549 1.79502 48.7296 1.64555 48.7296 1.57081C48.7296 1.42133 48.6549 1.34659 48.5054 1.34659H48.3559V1.79502Z" fill="white"/>
</svg>
