<?xml version="1.0" standalone="no"?>
<!DOCTYPE svg PUBLIC "-//W3C//DTD SVG 1.1//EN" "http://www.w3.org/Graphics/SVG/1.1/DTD/svg11.dtd" >
<svg xmlns="http://www.w3.org/2000/svg">
<metadata>Generated by IcoMoon</metadata>
<defs>
<font id="icomoon" horiz-adv-x="1024">
<font-face units-per-em="1024" ascent="960" descent="-64" />
<missing-glyph horiz-adv-x="1024" />
<glyph unicode="&#x20;" horiz-adv-x="512" d="" />
<glyph unicode="&#xe900;" d="M512 928c-262.4 0-480-217.6-480-480s217.6-480 480-480 480 217.6 480 480c0 262.4-217.6 480-480 480z" />
<glyph unicode="&#xe901;" d="M736 480h-192v192h-64v-192h-192v-64h192v-192h64v192h192z" />
<glyph unicode="&#xe902;" d="M512 928c-262.4 0-480-217.6-480-480s217.6-480 480-480 480 217.6 480 480c0 262.4-217.6 480-480 480z" />
<glyph unicode="&#xe903;" d="M736 480h-192v192h-64v-192h-192v-64h192v-192h64v192h192z" />
<glyph unicode="&#xe904;" glyph-name="Caret-Down" d="M819.2 640l-307.2-294.4-307.2 294.4-44.8-44.8 352-339.2 352 339.2z" />
<glyph unicode="&#xe905;" glyph-name="Caret-Up" d="M512 640l-352-339.2 44.8-44.8 307.2 294.4 307.2-294.4 44.8 44.8z" />
<glyph unicode="&#xe906;" d="M806.4 896h-588.8c-83.2 0-153.6-64-153.6-147.2v-595.2c0-89.6 70.4-153.6 153.6-153.6h595.2c83.2 0 153.6 64 153.6 147.2v601.6c-6.4 83.2-76.8 147.2-160 147.2z" />
<glyph unicode="&#xe907;" d="M838.4 620.8l-70.4 70.4-352-352-160 160-70.4-70.4 230.4-224z" />
<glyph unicode="&#xe908;" glyph-name="Checkbox_Checked_Disabled" d="M806.4 896h-588.8c-83.2 0-153.6-64-153.6-147.2v-595.2c0-89.6 70.4-153.6 153.6-153.6h595.2c83.2 0 153.6 64 153.6 147.2v601.6c-6.4 83.2-76.8 147.2-160 147.2zM896 147.2c0-44.8-38.4-83.2-89.6-83.2h-588.8c-51.2 0-89.6 38.4-89.6 83.2v601.6c0 44.8 38.4 83.2 89.6 83.2h595.2c44.8 0 83.2-38.4 83.2-83.2v-601.6zM838.4 620.8l-70.4 70.4-352-352-160 160-70.4-70.4 230.4-224z" />
<glyph unicode="&#xe909;" glyph-name="Checkbox_unchecked" d="M806.4 896h-588.8c-83.2 0-153.6-64-153.6-147.2v-595.2c0-89.6 70.4-153.6 153.6-153.6h595.2c83.2 0 153.6 64 153.6 147.2v601.6c-6.4 83.2-76.8 147.2-160 147.2zM896 147.2c0-44.8-38.4-83.2-89.6-83.2h-588.8c-51.2 0-89.6 38.4-89.6 83.2v601.6c0 44.8 38.4 83.2 89.6 83.2h595.2c44.8 0 83.2-38.4 83.2-83.2v-601.6z" />
<glyph unicode="&#xe90a;" glyph-name="Checkbox_unchecked_Disabled" d="M806.4 896h-588.8c-83.2 0-153.6-64-153.6-147.2v-595.2c0-89.6 70.4-153.6 153.6-153.6h595.2c83.2 0 153.6 64 153.6 147.2v601.6c-6.4 83.2-76.8 147.2-160 147.2zM896 147.2c0-44.8-38.4-83.2-89.6-83.2h-588.8c-51.2 0-89.6 38.4-89.6 83.2v601.6c0 44.8 38.4 83.2 89.6 83.2h595.2c44.8 0 83.2-38.4 83.2-83.2v-601.6z" />
<glyph unicode="&#xe90b;" glyph-name="Clear-Search" d="M512 896c-249.6 0-448-198.4-448-448s198.4-448 448-448c249.6 0 448 198.4 448 448s-198.4 448-448 448zM716.8 313.6c19.2-19.2 19.2-51.2 0-64v0c-19.2-19.2-51.2-19.2-64 0l-140.8 134.4-134.4-134.4c-19.2-19.2-51.2-19.2-64 0v0c-19.2 19.2-19.2 51.2 0 64l134.4 134.4-140.8 134.4c-19.2 19.2-19.2 51.2 0 64 19.2 19.2 51.2 19.2 64 0l140.8-134.4 134.4 134.4c19.2 19.2 51.2 19.2 64 0 19.2-19.2 19.2-51.2 0-64l-134.4-134.4 140.8-134.4z" />
<glyph unicode="&#xe90c;" glyph-name="Completed" d="M512 736c-160 0-288-128-288-288s128-288 288-288c160 0 288 128 288 288s-128 288-288 288zM678.4 531.2l-195.2-201.6c-6.4-3.2-12.8-6.4-19.2-6.4s-12.8 3.2-19.2 6.4l-112 112c-3.2 6.4-6.4 12.8-6.4 19.2 0 16 12.8 25.6 25.6 25.6 6.4 0 12.8-3.2 19.2-6.4l92.8-92.8 179.2 182.4c6.4 3.2 12.8 6.4 19.2 6.4 12.8 0 25.6-12.8 25.6-25.6-3.2-9.6-6.4-16-9.6-19.2z" />
<glyph unicode="&#xe90d;" glyph-name="Configure_Columns" d="M224 857.6c0 19.2-12.8 38.4-32 38.4s-32-19.2-32-38.4v-89.6h64v89.6zM160 32c0-19.2 12.8-32 32-32s32 12.8 32 32v416h-64v-416zM256 704h-128c-19.2 0-32-12.8-32-32v-128c0-19.2 12.8-32 32-32h128c19.2 0 32 12.8 32 32v128c0 19.2-12.8 32-32 32zM544 864c0 19.2-12.8 32-32 32s-32-12.8-32-32v-416h64v416zM480 32c0-19.2 12.8-32 32-32s32 12.8 32 32v96h-64v-96zM576 384h-128c-19.2 0-32-12.8-32-32v-128c0-19.2 12.8-32 32-32h128c19.2 0 32 12.8 32 32v128c0 19.2-12.8 32-32 32zM864 870.4c0 12.8-12.8 25.6-32 25.6s-32-12.8-32-25.6v-166.4h64v166.4zM800 44.8c0-25.6 12.8-44.8 32-44.8s32 19.2 32 44.8v339.2h-64v-339.2zM896 640h-128c-19.2 0-32-12.8-32-32v-128c0-19.2 12.8-32 32-32h128c19.2 0 32 12.8 32 32v128c0 19.2-12.8 32-32 32z" />
<glyph unicode="&#xe90e;" glyph-name="Dashboard_Down" d="M512 960c-281.6 0-512-230.4-512-512s230.4-512 512-512c281.6 0 512 230.4 512 512s-230.4 512-512 512zM512 246.4l-272 272 67.2 67.2 204.8-201.6 204.8 204.8 67.2-67.2-272-275.2z" />
<glyph unicode="&#xe90f;" glyph-name="Dashboard_Up" d="M512 960c-281.6 0-512-230.4-512-512s230.4-512 512-512c281.6 0 512 230.4 512 512s-230.4 512-512 512zM716.8 307.2l-204.8 204.8-204.8-204.8-67.2 67.2 272 275.2 272-272-67.2-70.4z" />
<glyph unicode="&#xe910;" glyph-name="Delete" d="M480 128h64v512h-64v-512zM352 128h64v512h-64v-512zM608 128h64v512h-64v-512zM800 768h-128v128h-320v-128h-192v-64h64v-704h576v704h64v64h-64zM416 832h192v-64h-192v64zM736 64h-448v640h448v-640z" />
<glyph unicode="&#xe911;" d="M928 352v-256c0-38.4-25.6-64-64-64h-704c-38.4 0-64 25.6-64 64v256h-64v-256c0-70.4 57.6-128 128-128h704c70.4 0 128 57.6 128 128v256h-64z" />
<glyph unicode="&#xe912;" d="M761.6 505.6c-12.8 12.8-32 12.8-44.8 0l-172.8-172.8v563.2c0 19.2-12.8 32-32 32s-32-12.8-32-32v-563.2l-166.4 172.8c-12.8 6.4-38.4 6.4-51.2 0s-6.4-38.4 0-51.2l224-224c0 0 6.4-6.4 12.8-6.4s6.4 0 12.8 0 6.4 0 12.8 0 6.4 6.4 12.8 6.4l224 224c6.4 12.8 6.4 38.4 0 51.2z" />
<glyph unicode="&#xe913;" glyph-name="Duplicate" d="M320 896v-704h576v704h-576zM832 256h-448v576h448v-576zM640 64h-448v576h64v64h-128v-704h576v128h-64v-64z" />
<glyph unicode="&#xe914;" glyph-name="Edit" d="M921.6 659.2l-192 198.4c-6.4 6.4-25.6 6.4-32 0l-524.8-524.8c0 0-6.4-6.4-6.4-12.8l-64-262.4c0-6.4 0-19.2 6.4-25.6s12.8-6.4 19.2-6.4c0 0 6.4 0 6.4 0l262.4 64c6.4 0 6.4 6.4 12.8 6.4l518.4 518.4c0 19.2 0 38.4-6.4 44.8zM153.6 89.6l44.8 179.2 134.4-134.4-179.2-44.8zM384 160l-160 160 352 352 160-160-352-352zM774.4 550.4l-160 160 89.6 96 160-160-89.6-96z" />
<glyph unicode="&#xe915;" glyph-name="Expand_Widget" d="M128 576h64v192h192v64h-256v-256zM192 320h-64v-256h256v64h-192v192zM640 832v-64h192v-192h64v256h-256zM832 128h-192v-64h256v256h-64v-192z" />
<glyph unicode="&#xe916;" glyph-name="Export" d="M960 960h-288c-19.2 0-32-12.8-32-32s12.8-32 32-32h243.2c0 0 0 0 0 0l-467.2-467.2c-12.8-12.8-12.8-32 0-44.8s32-12.8 44.8 0l467.2 467.2c0 0 0 0 0 0v-243.2c0-19.2 12.8-32 32-32s32 12.8 32 32v288c0 38.4-32 64-64 64zM992 384c-19.2 0-32-12.8-32-32v-320c0-19.2-12.8-32-32-32h-832c-19.2 0-32 12.8-32 32v832c0 19.2 12.8 32 32 32h320c19.2 0 32 12.8 32 32s-12.8 32-32 32h-352c-32 0-64-25.6-64-64v-896c0-32 32-64 64-64h896c32 0 64 32 64 64v352c0 19.2-12.8 32-32 32z" />
<glyph unicode="&#xe917;" glyph-name="Filter" d="M838.4 832h-652.8c-19.2 0-25.6-12.8-12.8-32l230.4-358.4c6.4-12.8 12.8-38.4 12.8-57.6v-198.4c0-19.2 12.8-38.4 25.6-44.8l128-70.4c12.8-6.4 25.6 0 25.6 19.2v294.4c0 19.2 6.4 44.8 19.2 57.6l230.4 358.4c19.2 19.2 12.8 32-6.4 32zM544 435.2v-243.2c0-19.2-12.8-25.6-25.6-19.2h-6.4c-12.8 6.4-25.6 32-25.6 44.8v185.6c0 19.2-6.4 44.8-19.2 57.6l-166.4 268.8c-6.4 12.8 0 25.6 12.8 25.6h428.8l-198.4-320z" />
<glyph unicode="&#xe918;" glyph-name="Info" d="M512 960c-281.6 0-512-230.4-512-512s230.4-512 512-512 512 230.4 512 512c0 281.6-230.4 512-512 512zM512 0c-249.6 0-448 198.4-448 448s198.4 448 448 448 448-198.4 448-448c0-249.6-198.4-448-448-448zM454.4 166.4h115.2v332.8h-115.2v-332.8zM454.4 620.8h115.2v108.8h-115.2v-108.8z" />
<glyph unicode="&#xe919;" glyph-name="Language" d="M512 960c-281.6 0-512-230.4-512-512s230.4-512 512-512 512 230.4 512 512c0 281.6-230.4 512-512 512zM345.6 870.4c-38.4-38.4-64-89.6-83.2-140.8h-108.8c51.2 57.6 115.2 108.8 192 140.8zM115.2 672h128c-12.8-57.6-25.6-121.6-25.6-192h-160c6.4 64 25.6 134.4 57.6 192zM115.2 224c-32 57.6-51.2 121.6-57.6 192h160c0-70.4 12.8-134.4 25.6-192h-128zM153.6 166.4h108.8c19.2-57.6 51.2-108.8 83.2-140.8-76.8 32-140.8 83.2-192 140.8zM486.4-6.4c-64 12.8-121.6 83.2-160 172.8h160v-172.8zM486.4 224h-179.2c-19.2 57.6-25.6 121.6-32 192h211.2v-192zM486.4 473.6h-211.2c0 70.4 12.8 134.4 32 192h179.2v-192zM486.4 729.6h-160c38.4 89.6 96 160 160 172.8v-172.8zM908.8 672c32-57.6 51.2-121.6 57.6-192h-160c0 70.4-12.8 134.4-25.6 192h128zM870.4 729.6h-108.8c-19.2 57.6-51.2 108.8-83.2 140.8 76.8-32 140.8-83.2 192-140.8zM537.6 902.4c64-12.8 121.6-83.2 160-172.8h-160v172.8zM537.6 672h179.2c19.2-57.6 25.6-121.6 32-192h-211.2v192zM537.6 422.4h211.2c0-70.4-12.8-134.4-32-192h-179.2v192zM537.6-6.4v172.8h160c-38.4-89.6-96-153.6-160-172.8zM678.4 25.6c32 38.4 57.6 89.6 83.2 140.8h108.8c-51.2-57.6-115.2-108.8-192-140.8zM908.8 224h-128c12.8 57.6 25.6 121.6 25.6 192h160c-6.4-64-25.6-134.4-57.6-192z" />
<glyph unicode="&#xe91a;" glyph-name="Language_Selection" d="M736 601.6l-224-236.8-224 236.8-32-32 256-275.2 256 275.2z" />
<glyph unicode="&#xe91b;" glyph-name="Map" d="M512 960c-211.2 0-384-172.8-384-384 0-320 384-640 384-640s384 320 384 640c0 211.2-172.8 384-384 384zM512 19.2c-96 89.6-320 332.8-320 556.8 0 179.2 140.8 320 320 320s320-140.8 320-320c0-224-224-467.2-320-556.8zM512 768c-108.8 0-192-83.2-192-192s83.2-192 192-192c108.8 0 192 83.2 192 192s-83.2 192-192 192zM512 448c-70.4 0-128 57.6-128 128s57.6 128 128 128 128-57.6 128-128-57.6-128-128-128z" />
<glyph unicode="&#xe91c;" d="M512 960c-283.307 0-512-228.693-512-512s228.693-512 512-512c283.307 0 512 228.693 512 512s-228.693 512-512 512z" />
<glyph unicode="&#xe91d;" d="M682.667 477.013l-238.933 136.533c-22.187 13.653-51.2-3.413-51.2-29.013v-273.067c0-25.6 29.013-42.667 51.2-29.013l238.933 136.533c22.187 11.947 22.187 46.080 0 58.027z" />
<glyph unicode="&#xe91e;" glyph-name="Mark_Default-View" d="M921.6 499.2l-358.4 358.4c-6.4 6.4-12.8 6.4-19.2 6.4s-12.8 0-19.2-6.4c0-6.4 0-12.8 0-19.2s0-12.8 6.4-19.2l51.2-57.6-179.2-172.8h-12.8c-32 19.2-64 25.6-96 25.6-51.2 0-102.4-19.2-134.4-57.6l-25.6-19.2c-6.4-12.8-6.4-25.6 0-32l192-198.4-230.4-230.4c-6.4-6.4-6.4-12.8-6.4-19.2s0-12.8 6.4-19.2c6.4-6.4 12.8-6.4 19.2-6.4s12.8 0 19.2 6.4l236.8 230.4 192-192c6.4-6.4 12.8-6.4 19.2-6.4s12.8 0 19.2 6.4l19.2 19.2c64 64 76.8 160 32 236.8l-6.4 6.4 185.6 179.2 51.2-51.2c6.4-6.4 12.8-6.4 19.2-6.4 12.8 0 25.6 12.8 25.6 25.6 0 6.4 0 6.4-6.4 12.8zM588.8 134.4l-6.4-6.4-390.4 396.8 6.4 6.4c25.6 25.6 64 38.4 102.4 38.4s76.8-12.8 102.4-44.8l185.6-185.6c51.2-57.6 57.6-147.2 0-204.8zM614.4 377.6l-172.8 179.2 179.2 179.2 172.8-185.6-179.2-172.8z" />
<glyph unicode="&#xe91f;" glyph-name="Marked_Default_View" d="M921.6 499.2l-358.4 358.4c-6.4 6.4-12.8 6.4-19.2 6.4s-12.8 0-19.2-6.4c0-6.4 0-12.8 0-19.2s0-12.8 6.4-19.2l51.2-57.6-179.2-172.8h-12.8c-32 19.2-64 25.6-96 25.6-51.2 0-102.4-19.2-134.4-57.6l-25.6-19.2c-6.4-12.8-6.4-25.6 0-32l192-198.4-230.4-230.4c-6.4-6.4-6.4-12.8-6.4-19.2s0-12.8 6.4-19.2c6.4-6.4 12.8-6.4 19.2-6.4s12.8 0 19.2 6.4l236.8 230.4 192-192c6.4-6.4 12.8-6.4 19.2-6.4s12.8 0 19.2 6.4l19.2 19.2c64 64 76.8 160 32 236.8l-6.4 6.4 185.6 179.2 51.2-51.2c6.4-6.4 12.8-6.4 19.2-6.4 12.8 0 25.6 12.8 25.6 25.6 0 6.4 0 6.4-6.4 12.8zM588.8 134.4l-6.4-6.4-390.4 396.8 6.4 6.4c25.6 25.6 64 38.4 102.4 38.4s76.8-12.8 102.4-44.8l185.6-185.6c51.2-57.6 57.6-147.2 0-204.8zM614.4 377.6l-172.8 179.2 179.2 179.2 172.8-185.6-179.2-172.8z" />
<glyph unicode="&#xe920;" d="M502.4-12.8c-19.2 16-38.4 80-67.2 188.8-25.6 96-41.6 160-60.8 169.6-102.4 51.2-166.4 153.6-166.4 265.6 0 163.2 137.6 297.6 304 297.6s304-134.4 304-297.6c0-112-64-214.4-166.4-265.6-19.2-9.6-35.2-73.6-60.8-169.6-28.8-108.8-48-172.8-67.2-188.8h-19.2z" />
<glyph unicode="&#xe921;" d="M512 896c160 0 288-128 288-281.6 0-105.6-60.8-204.8-156.8-252.8-22.4-12.8-38.4-60.8-70.4-179.2-16-64-41.6-166.4-60.8-182.4-19.2 16-44.8 118.4-60.8 182.4-32 118.4-44.8 166.4-70.4 179.2-96 48-156.8 144-156.8 252.8 0 153.6 128 281.6 288 281.6zM512 928c-176 0-320-140.8-320-313.6 0-118.4 67.2-227.2 176-281.6 12.8-9.6 35.2-96 51.2-160 32-118.4 48-179.2 70.4-198.4h41.6c22.4 19.2 41.6 80 70.4 198.4 16 64 38.4 150.4 51.2 160 108.8 54.4 176 160 176 281.6 3.2 172.8-140.8 313.6-316.8 313.6v0z" />
<glyph unicode="&#xe922;" d="M736 608c0-123.712-100.288-224-224-224s-224 100.288-224 224c0 123.712 100.288 224 224 224s224-100.288 224-224z" />
<glyph unicode="&#xe923;" d="M672 620.8c-6.4 83.2-76.8 147.2-160 147.2s-153.6-64-160-147.2c44.8 32 99.2 51.2 160 51.2s115.2-19.2 160-51.2z" />
<glyph unicode="&#xe924;" glyph-name="Mobile-Menu_Close" d="M588.8 448l256 256c21.333 21.333 21.333 55.467 0 76.8v0c-21.333 21.333-55.467 21.333-76.8 0l-256-256-256 256c-21.333 21.333-55.467 21.333-76.8 0v0c-21.333-21.333-21.333-55.467 0-76.8l256-256-256-256c-21.333-21.333-21.333-55.467 0-76.8s55.467-21.333 76.8 0l256 256 256-256c21.333-21.333 55.467-21.333 76.8 0s21.333 55.467 0 76.8l-256 256z" />
<glyph unicode="&#xe925;" glyph-name="Mobile-Menu_Open" d="M106.667 661.333h810.667c34.133 0 64 29.867 64 64s-29.867 64-64 64h-810.667c-34.133 0-64-29.867-64-64s29.867-64 64-64zM917.333 512h-810.667c-34.133 0-64-29.867-64-64s29.867-64 64-64h810.667c34.133 0 64 29.867 64 64s-29.867 64-64 64zM917.333 234.667h-810.667c-34.133 0-64-29.867-64-64s29.867-64 64-64h810.667c34.133 0 64 29.867 64 64s-29.867 64-64 64z" />
<glyph unicode="&#xe926;" glyph-name="Move-Coloumns" d="M341.333 704h128v128h-128v-128zM341.333 490.667h128v128h-128v-128zM341.333 277.333h128v128h-128v-128zM341.333 64h128v128h-128v-128zM554.667 832v-128h128v128h-128zM554.667 490.667h128v128h-128v-128zM554.667 277.333h128v128h-128v-128zM554.667 64h128v128h-128v-128z" />
<glyph unicode="&#xe927;" d="M512 960c-281.6 0-512-230.4-512-512s230.4-512 512-512c281.6 0 512 230.4 512 512s-230.4 512-512 512z" />
<glyph unicode="&#xe928;" d="M622.933 669.867l-34.133 34.133-273.067-256 273.067-256 34.133 34.133-234.667 221.867z" />
<glyph unicode="&#xe929;" glyph-name="Paver" d="M83.2 307.2l275.2 28.8c12.8 0 25.6 12.8 25.6 28.8v134.4l-288-60.8c-19.2-3.2-32-19.2-32-38.4v-76.8c0-9.6 9.6-19.2 19.2-16zM416 336h32l128 64h105.6c12.8 0 22.4 9.6 22.4 22.4l32 105.6v160h-185.6c-3.2 0-6.4-3.2-6.4-6.4v-19.2c0-3.2 3.2-6.4 6.4-6.4h153.6v-128h-160v64l-96-64v160h-32l-32-32h32v-320zM928 304v128h-32v-64h-320l-128-64v-32l128 64h192v-128h192v96h-32zM96 272c-19.2 0-32-12.8-32-32s12.8-32 32-32c19.2 0 32 12.8 32 32s-12.8 32-32 32zM160 272c-19.2 0-32-12.8-32-32s12.8-32 32-32 32 12.8 32 32c0 19.2-12.8 32-32 32zM224 272c-19.2 0-32-12.8-32-32s12.8-32 32-32 32 12.8 32 32c0 19.2-12.8 32-32 32zM288 272c-19.2 0-32-12.8-32-32s12.8-32 32-32c19.2 0 32 12.8 32 32s-12.8 32-32 32zM368 304c-25.6 0-48-22.4-48-48s22.4-48 48-48c25.6 0 48 22.4 48 48s-22.4 48-48 48zM668.8 304h-86.4l-3.2-3.2-57.6-28.8c12.8-32 41.6-54.4 73.6-60.8 0 0 3.2 0 3.2 0 6.4 0 16-3.2 22.4-3.2s12.8 0 19.2 3.2c3.2 0 3.2 0 6.4 0s9.6 3.2 12.8 3.2c3.2 0 3.2 0 6.4 3.2 3.2 0 6.4 3.2 9.6 6.4 3.2 0 3.2 3.2 6.4 3.2 6.4 3.2 9.6 6.4 12.8 9.6 0 0 3.2 3.2 3.2 3.2 3.2 3.2 6.4 6.4 9.6 9.6 0 3.2 3.2 3.2 3.2 6.4 3.2 3.2 3.2 6.4 6.4 9.6 0 0 3.2 3.2 3.2 6.4 0 0 0 3.2 3.2 3.2v0c3.2 9.6 9.6 19.2 9.6 32h-64z" />
<glyph unicode="&#xe92a;" glyph-name="Paver_Boundary" d="M160 192v-64h704v64h-704zM672 384h-320l-64-128h448l-64 128zM608 576h-192l-64-128h320l-64 128zM544 768h-64l-64-128h192l-64 128z" />
<glyph unicode="&#xe92b;" d="M985.6 558.080v171.52h-245.76v-17.92h-115.2v-15.36h-282.88v33.28h-322.56v-52.48h-19.2v-455.68h19.2v-52.48h322.56v33.28h282.88v-14.080h115.2v-21.76h245.76v391.68z" />
<glyph unicode="&#xe92c;" d="M473.6 202.24h152.32v133.12h-152.32v-133.12zM473.6 696.32v-133.12h152.32v133.12h-152.32z" />
<glyph unicode="&#xe92d;" d="M19.2 168.96h322.56v33.28h131.84v133.12h-454.4v-166.4zM473.6 696.32h-131.84v33.28h-322.56v-166.4h454.4v133.12zM559.36 506.88v15.36h-217.6v-144.64h217.6v15.36h56.32v113.92h-56.32z" />
<glyph unicode="&#xe92e;" d="M739.84 558.080h245.76v171.52h-245.76v-171.52zM739.84 166.4h245.76v171.52h-245.76v-171.52zM341.76 202.24h20.48v494.080h-20.48v-494.080zM442.88 430.080c-5.12 0-8.96-3.84-8.96-8.96s3.84-8.96 8.96-8.96 8.96 3.84 8.96 8.96c0 5.12-3.84 8.96-8.96 8.96zM503.040 468.48c-5.12 0-8.96-3.84-8.96-8.96s3.84-8.96 8.96-8.96c5.12 0 8.96 3.84 8.96 8.96s-3.84 8.96-8.96 8.96zM1004.8 711.68v-523.52h19.2v523.52h-19.2z" />
<glyph unicode="&#xe92f;" d="M624.64 711.68v-523.52h206.080v523.52h-206.080zM19.2 677.12h-19.2v-455.68h19.2v113.92h322.56v227.84h-322.56v113.92zM559.36 392.96h38.4v113.92h-38.4v-113.92z" />
<glyph unicode="&#xe930;" d="M559.36 573.44h152.32v-247.040h-152.32v247.040z" />
<glyph unicode="&#xe931;" d="M559.36 506.88h38.4v-113.92h-38.4v113.92z" />
<glyph unicode="&#xe932;" d="M341.76 335.36h224v227.84h-224v-227.84zM760.32 533.76l55.040 21.76-55.040 20.48 46.080 17.92-20.48 7.68-65.28-25.6 55.040-21.76-55.040-21.76 55.040-21.76-55.040-21.76 55.040-21.76-55.040-21.76 55.040-21.76-55.040-21.76 55.040-21.76-55.040-21.76 55.040-21.76-55.040-21.76 65.28-24.32 19.2 7.68-46.080 17.92 55.040 21.76-55.040 21.76 55.040 21.76-55.040 21.76 55.040 21.76-55.040 21.76 55.040 21.76-55.040 21.76 55.040 21.76-53.76 21.76zM294.4 332.8h12.8v230.4h-12.8v-230.4zM243.2 332.8h12.8v230.4h-12.8v-230.4zM192 332.8h12.8v230.4h-12.8v-230.4zM140.8 332.8h12.8v230.4h-12.8v-230.4zM89.6 332.8h12.8v230.4h-12.8v-230.4zM38.4 332.8h12.8v230.4h-12.8v-230.4z" />
<glyph unicode="&#xe933;" d="M832 332.8h153.6v230.4h-153.6v-230.4zM442.88 449.28c-15.36 0-28.16-12.8-28.16-28.16s12.8-28.16 28.16-28.16 28.16 12.8 28.16 28.16-12.8 28.16-28.16 28.16zM503.040 487.68c-15.36 0-28.16-12.8-28.16-28.16s12.8-28.16 28.16-28.16c15.36 0 28.16 12.8 28.16 28.16s-12.8 28.16-28.16 28.16zM985.6 687.36v-474.88h19.2v474.88h-19.2zM615.68 462.080h21.76v19.2h-21.76v-19.2zM615.68 417.28h21.76v19.2h-21.76v-19.2zM720.64 202.24h75.52v19.2h-19.2v75.52h19.2v19.2h-75.52v-113.92zM720.64 582.4h75.52v19.2h-19.2v75.52h19.2v19.2h-75.52v-113.92z" />
<glyph unicode="&#xe934;" d="M341.76 550.4v-346.88h20.48v492.8h-20.48v-145.92zM442.88 430.080c-5.12 0-8.96-3.84-8.96-8.96s3.84-8.96 8.96-8.96 8.96 3.84 8.96 8.96c0 5.12-3.84 8.96-8.96 8.96zM503.040 468.48c-5.12 0-8.96-3.84-8.96-8.96s3.84-8.96 8.96-8.96c5.12 0 8.96 3.84 8.96 8.96s-3.84 8.96-8.96 8.96zM776.96 221.44h38.4v75.52h-38.4v-75.52zM776.96 677.12v-75.52h38.4v75.52h-38.4z" />
<glyph unicode="&#xe935;" glyph-name="Plant" d="M960 240v320h-96v-192h-64v192h-96v-320h-32v128h-32l32 128h-32l32 64v64h-192l-32 64h-128v-224h-128v160h-64v-160h-64v-224h-32v-32h960v32h-32zM320 240h-192v64l192-32v-32zM320 368l-192 32h192v-32zM448 336v-96h-32v416h16l16-32v-64l32-64h-32l32-128h-32v-32zM640 240h-160v32h160v-32z" />
<glyph unicode="&#xe936;" glyph-name="Popup_Close" d="M556.8 448l262.4 262.4c12.8 12.8 12.8 32 0 44.8s-32 12.8-44.8 0l-262.4-262.4-262.4 262.4c-12.8 12.8-32 12.8-44.8 0s-12.8-32 0-44.8l262.4-262.4-262.4-262.4c-12.8-12.8-12.8-32 0-44.8 6.4-6.4 12.8-12.8 19.2-12.8s19.2 0 25.6 6.4l262.4 268.8 262.4-262.4c6.4-6.4 12.8-6.4 25.6-6.4 6.4 0 19.2 0 25.6 6.4 12.8 12.8 12.8 32 0 44.8l-268.8 262.4z" />
<glyph unicode="&#xe937;" glyph-name="Project_Options" d="M544 864h-64c-38.4 0-64-25.6-64-64v-64c0-38.4 25.6-64 64-64h64c38.4 0 64 32 64 64v64c0 38.4-25.6 64-64 64zM544 224h-64c-38.4 0-64-32-64-64v-64c0-38.4 25.6-64 64-64h64c38.4 0 64 32 64 64v64c0 38.4-25.6 64-64 64zM544 544h-64c-38.4 0-64-25.6-64-64v-64c0-38.4 25.6-64 64-64h64c38.4 0 64 32 64 64v64c0 38.4-25.6 64-64 64z" />
<glyph unicode="&#xe938;" d="M512 896c-249.6 0-448-198.4-448-448s198.4-448 448-448 448 198.4 448 448c0 249.6-198.4 448-448 448z" />
<glyph unicode="&#xe939;" d="M512 640c-108.8 0-192-83.2-192-192s83.2-192 192-192 192 83.2 192 192c0 108.8-83.2 192-192 192z" />
<glyph unicode="&#xe93a;" glyph-name="Radio_selected_disabled" d="M512 896c-249.6 0-448-198.4-448-448s198.4-448 448-448 448 198.4 448 448c0 249.6-198.4 448-448 448zM512 70.4c-211.2 0-377.6 172.8-377.6 377.6 0 211.2 172.8 377.6 377.6 377.6s377.6-172.8 377.6-377.6c0-211.2-166.4-377.6-377.6-377.6zM512 640c-108.8 0-192-83.2-192-192s83.2-192 192-192 192 83.2 192 192c0 108.8-83.2 192-192 192z" />
<glyph unicode="&#xe93b;" glyph-name="Radio_unselected" d="M512 896c-249.6 0-448-198.4-448-448s198.4-448 448-448 448 198.4 448 448c0 249.6-198.4 448-448 448zM512 70.4c-211.2 0-377.6 172.8-377.6 377.6 0 211.2 172.8 377.6 377.6 377.6 211.2 0 377.6-172.8 377.6-377.6 0-211.2-166.4-377.6-377.6-377.6z" />
<glyph unicode="&#xe93c;" glyph-name="Radio_unselected_Disabled" d="M512 896c-249.6 0-448-198.4-448-448s198.4-448 448-448c249.6 0 448 198.4 448 448s-198.4 448-448 448zM512 70.4c-211.2 0-377.6 172.8-377.6 377.6 0 211.2 172.8 377.6 377.6 377.6 211.2 0 377.6-172.8 377.6-377.6 0-211.2-166.4-377.6-377.6-377.6z" />
<glyph unicode="&#xe93d;" glyph-name="Remaining_Hours" d="M512 736c-160 0-288-128-288-288s128-288 288-288c160 0 288 128 288 288s-128 288-288 288zM646.4 400c-3.2 0-3.2 0-6.4 0-48 0-96 0-144 0-19.2 0-28.8 9.6-28.8 28.8 0 57.6 0 115.2 0 169.6 0 16 9.6 28.8 25.6 25.6 9.6 0 19.2-9.6 22.4-19.2 0-3.2 0-6.4 0-9.6 0-48 0-96 0-140.8 0-3.2 0-3.2 0-6.4 3.2 0 6.4 0 6.4 0 38.4 0 80 0 118.4 0 16 0 25.6-12.8 25.6-25.6s-9.6-22.4-19.2-22.4z" />
<glyph unicode="&#xe93e;" glyph-name="Remaining_Tons" d="M192 544v-32h32l48-224h-48v-64h57.6l6.4-32h32c6.4 35.2 38.4 64 80 64 38.4 0 70.4-28.8 80-64h67.2c6.4 35.2 38.4 64 80 64 38.4 0 70.4-28.8 80-64h28.8l6.4 32h57.6v64h-48l48 224h32v32h-640zM400 224c-25.6 0-48-22.4-48-48s22.4-48 48-48c25.6 0 48 22.4 48 48 0 28.8-22.4 48-48 48zM624 224c-25.6 0-48-22.4-48-48s22.4-48 48-48c25.6 0 48 22.4 48 48 0 28.8-22.4 48-48 48zM710.4 659.2c-12.8 6.4-25.6 12.8-38.4 12.8 0 41.6-28.8 80-70.4 92.8-25.6 6.4-51.2 3.2-70.4-6.4-25.6 12.8-57.6 12.8-86.4 6.4-44.8-12.8-76.8-48-89.6-89.6-16 0-28.8-3.2-41.6-12.8-16-16-25.6-35.2-25.6-54.4h448c0 19.2-9.6 38.4-25.6 51.2z" />
<glyph unicode="&#xe93f;" glyph-name="Remove" d="M563.2 448l160 160c12.8 12.8 12.8 38.4 0 51.2s-38.4 12.8-51.2 0l-160-160-160 160c-12.8 12.8-38.4 12.8-51.2 0s-12.8-38.4 0-51.2l160-160-160-160c-12.8-12.8-12.8-38.4 0-51.2s38.4-12.8 51.2 0l160 160 160-160c12.8-12.8 38.4-12.8 51.2 0s12.8 38.4 0 51.2l-160 160z" />
<glyph unicode="&#xe940;" glyph-name="Save_Views" d="M1004.8 812.8l-128 128c-12.8 12.8-32 19.2-51.2 19.2h-755.2c-38.4 0-70.4-32-70.4-70.4v-876.8c0-44.8 32-76.8 70.4-76.8h876.8c38.4 0 70.4 32 70.4 70.4v755.2c6.4 19.2 0 38.4-12.8 51.2zM320 870.4c0 12.8 6.4 25.6 19.2 25.6h339.2c19.2 0 25.6-12.8 25.6-25.6v-147.2c0-6.4-6.4-19.2-19.2-19.2h-345.6c-12.8 0-19.2 12.8-19.2 25.6v140.8zM960 25.6c0-12.8-12.8-25.6-25.6-25.6h-844.8c-12.8 0-25.6 12.8-25.6 25.6v844.8c0 12.8 12.8 25.6 25.6 25.6h121.6c12.8 0 44.8-12.8 44.8-25.6v-172.8c0-44.8 12.8-57.6 57.6-57.6h396.8c44.8 0 57.6 12.8 57.6 57.6v179.2c0 6.4 25.6 19.2 38.4 19.2h12.8c6.4 0 12.8 0 19.2-6.4l115.2-115.2c6.4-6.4 6.4-12.8 6.4-19.2v-729.6zM512 486.4c-96 0-172.8-76.8-172.8-172.8s76.8-172.8 172.8-172.8 172.8 76.8 172.8 172.8c0 96-76.8 172.8-172.8 172.8zM512 192c-70.4 0-128 57.6-128 128s57.6 128 128 128 128-57.6 128-128c0-76.8-57.6-128-128-128z" />
<glyph unicode="&#xe941;" glyph-name="Search" d="M672 326.4c51.2 57.6 83.2 121.6 83.2 198.4 0 172.8-140.8 307.2-313.6 307.2s-313.6-134.4-313.6-307.2c0-166.4 140.8-307.2 313.6-307.2 70.4 0 134.4 25.6 185.6 57.6l224-217.6 51.2 44.8-230.4 224zM441.6 288c-134.4 0-243.2 108.8-243.2 236.8s108.8 236.8 243.2 236.8c134.4 0 243.2-108.8 243.2-236.8s-108.8-236.8-243.2-236.8z" />
<glyph unicode="&#xe942;" glyph-name="Sort" d="M512 704l-192-198.4h384l-192 198.4zM512 192l192 192h-384l192-192z" />
<glyph unicode="&#xe943;" glyph-name="Sort_Ascending" d="M320 544l192-192 192 192z" />
<glyph unicode="&#xe944;" glyph-name="Sort_Descending" d="M512 544l-192-192h384z" />
<glyph unicode="&#xe945;" glyph-name="Truck" d="M384 480v128h-140.8c-9.6 0-19.2-6.4-22.4-19.2l-28.8-76.8-102.4-28.8c-16-3.2-25.6-16-25.6-28.8v-108.8c0-16 9.6-25.6 25.6-25.6h44.8c12.8 38.4 48 64 89.6 64s76.8-25.6 89.6-64h70.4v160zM352 512h-128l22.4 51.2c0 6.4 6.4 12.8 16 12.8h89.6v-64zM928 608v-32h-480v96h-160l128-32v-320h128l32 32h288l32-32h64v288h-32zM515.2 537.6h-60.8v-188.8h-6.4v195.2h67.2v-6.4zM643.2 537.6h-60.8v-124.8h-6.4v131.2h67.2v-6.4zM771.2 537.6h-60.8v-124.8h-6.4v131.2h67.2v-6.4zM899.2 537.6h-60.8v-124.8h-6.4v131.2h67.2v-6.4zM224 352c-35.2 0-64-28.8-64-64s28.8-64 64-64 64 28.8 64 64c0 35.2-28.8 64-64 64zM224 256c-19.2 0-32 12.8-32 32s12.8 32 32 32c19.2 0 32-12.8 32-32s-12.8-32-32-32zM576 288c0-35.2 28.8-64 64-64s64 28.8 64 64c0 35.2-28.8 64-64 64s-64-28.8-64-64zM640 320c19.2 0 32-12.8 32-32s-12.8-32-32-32c-19.2 0-32 12.8-32 32s12.8 32 32 32zM736 288c0-35.2 28.8-64 64-64s64 28.8 64 64c0 35.2-28.8 64-64 64s-64-28.8-64-64zM800 320c19.2 0 32-12.8 32-32s-12.8-32-32-32c-19.2 0-32 12.8-32 32s12.8 32 32 32zM352 256h192v32h-192v-32z" />
<glyph unicode="&#xe946;" glyph-name="User_Menu" d="M672 454.4c83.2 51.2 134.4 134.4 134.4 230.4 0 153.6-128 275.2-294.4 275.2-160 0-294.4-121.6-294.4-275.2 0-96 51.2-179.2 134.4-230.4-204.8-64-352-243.2-352-460.8 0-25.6 0-44.8 0-57.6h1024c0 12.8 0 32 0 57.6 0 217.6-147.2 396.8-352 460.8zM294.4 684.8c0 115.2 96 204.8 217.6 204.8s217.6-89.6 217.6-204.8c0-115.2-96-204.8-217.6-204.8s-217.6 89.6-217.6 204.8zM70.4 6.4c6.4 224 204.8 403.2 441.6 403.2s435.2-179.2 441.6-403.2h-883.2z" />
</font>
</defs>
</svg>
